<svg width="659" height="533" viewBox="0 0 659 533" fill="none" xmlns="http://www.w3.org/2000/svg">
<path opacity="0.2" fill-rule="evenodd" clip-rule="evenodd" d="M620.192 533C644.666 486.964 658.533 434.43 658.533 378.657C658.533 196.808 511.115 49.3901 329.266 49.3901C147.418 49.3901 0 196.808 0 378.657C0 434.43 13.8669 486.964 38.341 533H620.192Z" fill="url(#paint0_linear)"/>
<path d="M181 445.751C181 446.441 180.44 447 179.749 447L179.532 447C178.842 447 178.282 446.441 178.282 445.751L178.282 445.535C178.282 444.845 178.842 444.286 179.532 444.286L179.749 444.286C180.44 444.286 181 444.845 181 445.535L181 445.751Z" fill="url(#paint1_linear)"/>
<path d="M137.854 445.751C137.854 446.441 137.294 447 136.604 447L136.387 447C135.696 447 135.136 446.441 135.136 445.751L135.136 445.535C135.136 444.845 135.696 444.286 136.387 444.286L136.604 444.286C137.294 444.286 137.854 444.845 137.854 445.535L137.854 445.751Z" fill="url(#paint2_linear)"/>
<path d="M93.4579 447C94.1485 447 94.7084 446.441 94.7084 445.751L94.7084 445.535C94.7084 444.845 94.1485 444.286 93.4579 444.286L93.2409 444.286C92.5503 444.286 91.9905 444.845 91.9905 445.535L91.9905 445.751C91.9905 446.441 92.5503 447 93.2409 447L93.4579 447Z" fill="url(#paint3_linear)"/>
<path d="M181 358.894C181 359.584 180.44 360.143 179.75 360.143L179.533 360.143C178.842 360.143 178.282 359.584 178.282 358.894L178.282 358.678C178.282 357.988 178.842 357.429 179.533 357.429L179.75 357.429C180.44 357.429 181 357.988 181 358.678L181 358.894Z" fill="url(#paint4_linear)"/>
<path d="M136.604 360.143C137.294 360.143 137.854 359.584 137.854 358.894L137.854 358.678C137.854 357.988 137.294 357.429 136.604 357.429L136.387 357.429C135.696 357.429 135.136 357.988 135.136 358.678L135.136 358.894C135.136 359.584 135.696 360.143 136.387 360.143L136.604 360.143Z" fill="url(#paint5_linear)"/>
<path d="M94.7086 358.894C94.7086 359.584 94.1487 360.143 93.4581 360.143L93.2412 360.143C92.5505 360.143 91.9907 359.584 91.9907 358.894L91.9907 358.678C91.9907 357.988 92.5505 357.429 93.2412 357.429L93.4581 357.429C94.1487 357.429 94.7086 357.988 94.7086 358.678L94.7086 358.894Z" fill="url(#paint6_linear)"/>
<path d="M179.75 418.047C180.44 418.047 181 417.488 181 416.799L181 416.582C181 415.892 180.44 415.333 179.75 415.333L179.533 415.333C178.842 415.333 178.282 415.892 178.282 416.582L178.282 416.799C178.282 417.488 178.842 418.047 179.533 418.047L179.75 418.047Z" fill="url(#paint7_linear)"/>
<path d="M137.854 416.799C137.854 417.488 137.294 418.047 136.604 418.047L136.387 418.047C135.696 418.047 135.136 417.488 135.136 416.799L135.136 416.582C135.136 415.892 135.696 415.333 136.387 415.333L136.604 415.333C137.294 415.333 137.854 415.892 137.854 416.582L137.854 416.799Z" fill="url(#paint8_linear)"/>
<path d="M93.4581 418.047C94.1487 418.047 94.7086 417.488 94.7086 416.799L94.7086 416.582C94.7086 415.892 94.1487 415.333 93.4581 415.333L93.2412 415.333C92.5505 415.333 91.9907 415.892 91.9907 416.582L91.9907 416.799C91.9907 417.488 92.5505 418.047 93.2412 418.047L93.4581 418.047Z" fill="url(#paint9_linear)"/>
<path d="M181 329.942C181 330.632 180.44 331.191 179.75 331.191L179.533 331.191C178.842 331.191 178.282 330.632 178.282 329.942L178.282 329.725C178.282 329.036 178.842 328.477 179.533 328.477L179.75 328.477C180.44 328.477 181 329.036 181 329.725L181 329.942Z" fill="url(#paint10_linear)"/>
<path d="M136.604 331.191C137.294 331.191 137.854 330.632 137.854 329.942L137.854 329.725C137.854 329.036 137.294 328.477 136.604 328.477L136.387 328.477C135.696 328.477 135.136 329.036 135.136 329.725L135.136 329.942C135.136 330.632 135.696 331.191 136.387 331.191L136.604 331.191Z" fill="url(#paint11_linear)"/>
<path d="M94.7086 329.942C94.7086 330.632 94.1487 331.191 93.4581 331.191L93.2412 331.191C92.5505 331.191 91.9907 330.632 91.9907 329.942L91.9907 329.725C91.9907 329.036 92.5505 328.477 93.2412 328.477L93.4581 328.477C94.1487 328.477 94.7086 329.036 94.7086 329.725L94.7086 329.942Z" fill="url(#paint12_linear)"/>
<path d="M179.75 389.095C180.44 389.095 181 388.536 181 387.846L181 387.63C181 386.94 180.44 386.381 179.75 386.381L179.533 386.381C178.842 386.381 178.282 386.94 178.282 387.63L178.282 387.846C178.282 388.536 178.842 389.095 179.533 389.095L179.75 389.095Z" fill="url(#paint13_linear)"/>
<path d="M137.854 387.846C137.854 388.536 137.294 389.095 136.604 389.095L136.387 389.095C135.696 389.095 135.136 388.536 135.136 387.846L135.136 387.63C135.136 386.94 135.696 386.381 136.387 386.381L136.604 386.381C137.294 386.381 137.854 386.94 137.854 387.63L137.854 387.846Z" fill="url(#paint14_linear)"/>
<path d="M93.4581 389.095C94.1487 389.095 94.7086 388.536 94.7086 387.846L94.7086 387.63C94.7086 386.94 94.1487 386.381 93.4581 386.381L93.2412 386.381C92.5505 386.381 91.9907 386.94 91.9907 387.63L91.9907 387.846C91.9907 388.536 92.5505 389.095 93.2412 389.095L93.4581 389.095Z" fill="url(#paint15_linear)"/>
<path d="M179.75 432.524C180.44 432.524 181 431.965 181 431.275L181 431.058C181 430.369 180.44 429.81 179.75 429.81L179.533 429.81C178.842 429.81 178.282 430.369 178.282 431.058L178.282 431.275C178.282 431.965 178.842 432.524 179.533 432.524L179.75 432.524Z" fill="url(#paint16_linear)"/>
<path d="M137.854 431.275C137.854 431.965 137.294 432.524 136.604 432.524L136.387 432.524C135.696 432.524 135.136 431.965 135.136 431.275L135.136 431.058C135.136 430.369 135.696 429.81 136.387 429.81L136.604 429.81C137.294 429.81 137.854 430.369 137.854 431.058L137.854 431.275Z" fill="url(#paint17_linear)"/>
<path d="M93.4581 432.524C94.1487 432.524 94.7086 431.965 94.7086 431.275L94.7086 431.058C94.7086 430.369 94.1487 429.81 93.4581 429.81L93.2412 429.81C92.5505 429.81 91.9907 430.369 91.9907 431.058L91.9907 431.275C91.9907 431.965 92.5505 432.524 93.2412 432.524L93.4581 432.524Z" fill="url(#paint18_linear)"/>
<path d="M181 344.418C181 345.108 180.44 345.667 179.75 345.667L179.533 345.667C178.842 345.667 178.282 345.108 178.282 344.418L178.282 344.201C178.282 343.512 178.842 342.953 179.533 342.953L179.75 342.953C180.44 342.953 181 343.512 181 344.201L181 344.418Z" fill="url(#paint19_linear)"/>
<path d="M136.604 345.667C137.294 345.667 137.854 345.108 137.854 344.418L137.854 344.201C137.854 343.512 137.294 342.953 136.604 342.953L136.387 342.953C135.696 342.953 135.136 343.512 135.136 344.201L135.136 344.418C135.136 345.108 135.696 345.667 136.387 345.667L136.604 345.667Z" fill="url(#paint20_linear)"/>
<path d="M94.7086 344.418C94.7086 345.108 94.1487 345.667 93.4581 345.667L93.2412 345.667C92.5505 345.667 91.9907 345.108 91.9907 344.418L91.9907 344.201C91.9907 343.512 92.5505 342.953 93.2412 342.953L93.4581 342.953C94.1487 342.953 94.7086 343.512 94.7086 344.201L94.7086 344.418Z" fill="url(#paint21_linear)"/>
<path d="M179.75 403.572C180.44 403.572 181 403.013 181 402.323L181 402.106C181 401.417 180.44 400.857 179.75 400.857L179.533 400.857C178.842 400.857 178.282 401.417 178.282 402.106L178.282 402.323C178.282 403.013 178.842 403.572 179.533 403.572L179.75 403.572Z" fill="url(#paint22_linear)"/>
<path d="M137.854 402.323C137.854 403.013 137.294 403.572 136.604 403.572L136.387 403.572C135.696 403.572 135.136 403.013 135.136 402.323L135.136 402.106C135.136 401.417 135.696 400.857 136.387 400.857L136.604 400.857C137.294 400.857 137.854 401.417 137.854 402.106L137.854 402.323Z" fill="url(#paint23_linear)"/>
<path d="M93.4581 403.572C94.1487 403.572 94.7086 403.013 94.7086 402.323L94.7086 402.106C94.7086 401.417 94.1487 400.857 93.4581 400.857L93.2412 400.857C92.5505 400.857 91.9907 401.417 91.9907 402.106L91.9907 402.323C91.9907 403.013 92.5505 403.572 93.2412 403.572L93.4581 403.572Z" fill="url(#paint24_linear)"/>
<path d="M181 315.465C181 316.155 180.44 316.714 179.75 316.714L179.533 316.714C178.842 316.714 178.282 316.155 178.282 315.465L178.282 315.249C178.282 314.559 178.842 314 179.533 314L179.75 314C180.44 314 181 314.559 181 315.249L181 315.465Z" fill="url(#paint25_linear)"/>
<path d="M136.604 316.714C137.294 316.714 137.854 316.155 137.854 315.465L137.854 315.249C137.854 314.559 137.294 314 136.604 314L136.387 314C135.696 314 135.136 314.559 135.136 315.249L135.136 315.465C135.136 316.155 135.696 316.714 136.387 316.714L136.604 316.714Z" fill="url(#paint26_linear)"/>
<path d="M94.7086 315.465C94.7086 316.155 94.1487 316.714 93.4581 316.714L93.2412 316.714C92.5505 316.714 91.9907 316.155 91.9907 315.465L91.9907 315.249C91.9907 314.559 92.5505 314 93.2412 314L93.4581 314C94.1487 314 94.7086 314.559 94.7086 315.249L94.7086 315.465Z" fill="url(#paint27_linear)"/>
<path d="M179.75 374.619C180.44 374.619 181 374.06 181 373.37L181 373.154C181 372.464 180.44 371.905 179.75 371.905L179.533 371.905C178.842 371.905 178.282 372.464 178.282 373.154L178.282 373.37C178.282 374.06 178.842 374.619 179.533 374.619L179.75 374.619Z" fill="url(#paint28_linear)"/>
<path d="M137.854 373.37C137.854 374.06 137.294 374.619 136.604 374.619L136.387 374.619C135.696 374.619 135.136 374.06 135.136 373.37L135.136 373.154C135.136 372.464 135.696 371.905 136.387 371.905L136.604 371.905C137.294 371.905 137.854 372.464 137.854 373.154L137.854 373.37Z" fill="url(#paint29_linear)"/>
<path d="M93.4581 374.619C94.1487 374.619 94.7086 374.06 94.7086 373.37L94.7086 373.154C94.7086 372.464 94.1487 371.905 93.4581 371.905L93.2412 371.905C92.5505 371.905 91.9907 372.464 91.9907 373.154L91.9907 373.37C91.9907 374.06 92.5505 374.619 93.2412 374.619L93.4581 374.619Z" fill="url(#paint30_linear)"/>
<path d="M150.759 447C151.449 447 152.009 446.441 152.009 445.751L152.009 445.535C152.009 444.845 151.449 444.286 150.759 444.286L150.542 444.286C149.851 444.286 149.291 444.845 149.291 445.535L149.291 445.751C149.291 446.441 149.851 447 150.542 447L150.759 447Z" fill="url(#paint31_linear)"/>
<path d="M108.864 445.751C108.864 446.441 108.304 447 107.613 447L107.396 447C106.706 447 106.146 446.441 106.146 445.751L106.146 445.535C106.146 444.845 106.706 444.286 107.396 444.286L107.613 444.286C108.304 444.286 108.864 444.845 108.864 445.535L108.864 445.751Z" fill="url(#paint32_linear)"/>
<path d="M64.4674 447C65.158 447 65.7179 446.441 65.7179 445.751L65.7179 445.535C65.7179 444.845 65.158 444.286 64.4674 444.286L64.2505 444.286C63.5598 444.286 63 444.845 63 445.535L63 445.751C63 446.441 63.5598 447 64.2505 447L64.4674 447Z" fill="url(#paint33_linear)"/>
<path d="M152.009 358.894C152.009 359.584 151.449 360.143 150.759 360.143L150.542 360.143C149.851 360.143 149.291 359.584 149.291 358.894L149.291 358.678C149.291 357.988 149.851 357.429 150.542 357.429L150.759 357.429C151.449 357.429 152.009 357.988 152.009 358.678L152.009 358.894Z" fill="url(#paint34_linear)"/>
<path d="M107.613 360.143C108.304 360.143 108.864 359.584 108.864 358.894L108.864 358.678C108.864 357.988 108.304 357.429 107.613 357.429L107.396 357.429C106.706 357.429 106.146 357.988 106.146 358.678L106.146 358.894C106.146 359.584 106.706 360.143 107.396 360.143L107.613 360.143Z" fill="url(#paint35_linear)"/>
<path d="M65.7179 358.894C65.7179 359.584 65.158 360.143 64.4674 360.143L64.2505 360.143C63.5598 360.143 63 359.584 63 358.894L63 358.678C63 357.988 63.5598 357.429 64.2505 357.429L64.4674 357.429C65.158 357.429 65.7179 357.988 65.7179 358.678L65.7179 358.894Z" fill="url(#paint36_linear)"/>
<path d="M150.759 418.047C151.449 418.047 152.009 417.488 152.009 416.799L152.009 416.582C152.009 415.892 151.449 415.333 150.759 415.333L150.542 415.333C149.851 415.333 149.291 415.892 149.291 416.582L149.291 416.799C149.291 417.488 149.851 418.047 150.542 418.047L150.759 418.047Z" fill="url(#paint37_linear)"/>
<path d="M108.864 416.799C108.864 417.488 108.304 418.047 107.613 418.047L107.396 418.047C106.706 418.047 106.146 417.488 106.146 416.799L106.146 416.582C106.146 415.892 106.706 415.333 107.396 415.333L107.613 415.333C108.304 415.333 108.864 415.892 108.864 416.582L108.864 416.799Z" fill="url(#paint38_linear)"/>
<path d="M64.4674 418.047C65.158 418.047 65.7179 417.488 65.7179 416.799L65.7179 416.582C65.7179 415.892 65.158 415.333 64.4674 415.333L64.2505 415.333C63.5598 415.333 63 415.892 63 416.582L63 416.799C63 417.488 63.5598 418.047 64.2505 418.047L64.4674 418.047Z" fill="url(#paint39_linear)"/>
<path d="M152.009 329.942C152.009 330.632 151.449 331.191 150.759 331.191L150.542 331.191C149.851 331.191 149.291 330.632 149.291 329.942L149.291 329.725C149.291 329.036 149.851 328.477 150.542 328.477L150.759 328.477C151.449 328.477 152.009 329.036 152.009 329.725L152.009 329.942Z" fill="url(#paint40_linear)"/>
<path d="M107.613 331.191C108.304 331.191 108.864 330.632 108.864 329.942L108.864 329.725C108.864 329.036 108.304 328.477 107.613 328.477L107.396 328.477C106.706 328.477 106.146 329.036 106.146 329.725L106.146 329.942C106.146 330.632 106.706 331.191 107.396 331.191L107.613 331.191Z" fill="url(#paint41_linear)"/>
<path d="M65.7179 329.942C65.7179 330.632 65.158 331.191 64.4674 331.191L64.2505 331.191C63.5598 331.191 63 330.632 63 329.942L63 329.725C63 329.036 63.5598 328.477 64.2505 328.477L64.4674 328.477C65.158 328.477 65.7179 329.036 65.7179 329.725L65.7179 329.942Z" fill="url(#paint42_linear)"/>
<path d="M150.759 389.095C151.449 389.095 152.009 388.536 152.009 387.846L152.009 387.63C152.009 386.94 151.449 386.381 150.759 386.381L150.542 386.381C149.851 386.381 149.291 386.94 149.291 387.63L149.291 387.846C149.291 388.536 149.851 389.095 150.542 389.095L150.759 389.095Z" fill="url(#paint43_linear)"/>
<path d="M108.864 387.846C108.864 388.536 108.304 389.095 107.613 389.095L107.396 389.095C106.706 389.095 106.146 388.536 106.146 387.846L106.146 387.63C106.146 386.94 106.706 386.381 107.396 386.381L107.613 386.381C108.304 386.381 108.864 386.94 108.864 387.63L108.864 387.846Z" fill="url(#paint44_linear)"/>
<path d="M64.4674 389.095C65.158 389.095 65.7179 388.536 65.7179 387.846L65.7179 387.63C65.7179 386.94 65.158 386.381 64.4674 386.381L64.2505 386.381C63.5598 386.381 63 386.94 63 387.63L63 387.846C63 388.536 63.5598 389.095 64.2505 389.095L64.4674 389.095Z" fill="url(#paint45_linear)"/>
<path d="M150.759 432.524C151.449 432.524 152.009 431.965 152.009 431.275L152.009 431.058C152.009 430.369 151.449 429.81 150.759 429.81L150.542 429.81C149.851 429.81 149.291 430.369 149.291 431.058L149.291 431.275C149.291 431.965 149.851 432.524 150.542 432.524L150.759 432.524Z" fill="url(#paint46_linear)"/>
<path d="M108.864 431.275C108.864 431.965 108.304 432.524 107.613 432.524L107.396 432.524C106.706 432.524 106.146 431.965 106.146 431.275L106.146 431.058C106.146 430.369 106.706 429.81 107.396 429.81L107.613 429.81C108.304 429.81 108.864 430.369 108.864 431.058L108.864 431.275Z" fill="url(#paint47_linear)"/>
<path d="M64.4674 432.524C65.158 432.524 65.7179 431.965 65.7179 431.275L65.7179 431.058C65.7179 430.369 65.158 429.81 64.4674 429.81L64.2505 429.81C63.5598 429.81 63 430.369 63 431.058L63 431.275C63 431.965 63.5598 432.524 64.2505 432.524L64.4674 432.524Z" fill="url(#paint48_linear)"/>
<path d="M152.009 344.418C152.009 345.108 151.449 345.667 150.759 345.667L150.542 345.667C149.851 345.667 149.291 345.108 149.291 344.418L149.291 344.201C149.291 343.512 149.851 342.953 150.542 342.953L150.759 342.953C151.449 342.953 152.009 343.512 152.009 344.201L152.009 344.418Z" fill="url(#paint49_linear)"/>
<path d="M107.613 345.667C108.304 345.667 108.864 345.108 108.864 344.418L108.864 344.201C108.864 343.512 108.304 342.953 107.613 342.953L107.396 342.953C106.706 342.953 106.146 343.512 106.146 344.201L106.146 344.418C106.146 345.108 106.706 345.667 107.396 345.667L107.613 345.667Z" fill="url(#paint50_linear)"/>
<path d="M65.7179 344.418C65.7179 345.108 65.158 345.667 64.4674 345.667L64.2505 345.667C63.5598 345.667 63 345.108 63 344.418L63 344.201C63 343.512 63.5598 342.953 64.2505 342.953L64.4674 342.953C65.158 342.953 65.7179 343.512 65.7179 344.201L65.7179 344.418Z" fill="url(#paint51_linear)"/>
<path d="M150.759 403.572C151.449 403.572 152.009 403.013 152.009 402.323L152.009 402.106C152.009 401.417 151.449 400.857 150.759 400.857L150.542 400.857C149.851 400.857 149.291 401.417 149.291 402.106L149.291 402.323C149.291 403.013 149.851 403.572 150.542 403.572L150.759 403.572Z" fill="url(#paint52_linear)"/>
<path d="M108.864 402.323C108.864 403.013 108.304 403.572 107.613 403.572L107.396 403.572C106.706 403.572 106.146 403.013 106.146 402.323L106.146 402.106C106.146 401.417 106.706 400.857 107.396 400.857L107.613 400.857C108.304 400.857 108.864 401.417 108.864 402.106L108.864 402.323Z" fill="url(#paint53_linear)"/>
<path d="M64.4674 403.572C65.158 403.572 65.7179 403.013 65.7179 402.323L65.7179 402.106C65.7179 401.417 65.158 400.857 64.4674 400.857L64.2505 400.857C63.5598 400.857 63 401.417 63 402.106L63 402.323C63 403.013 63.5598 403.572 64.2505 403.572L64.4674 403.572Z" fill="url(#paint54_linear)"/>
<path d="M152.009 315.465C152.009 316.155 151.449 316.714 150.759 316.714L150.542 316.714C149.851 316.714 149.291 316.155 149.291 315.465L149.291 315.249C149.291 314.559 149.851 314 150.542 314L150.759 314C151.449 314 152.009 314.559 152.009 315.249L152.009 315.465Z" fill="url(#paint55_linear)"/>
<path d="M107.613 316.714C108.304 316.714 108.864 316.155 108.864 315.465L108.864 315.249C108.864 314.559 108.304 314 107.613 314L107.396 314C106.706 314 106.146 314.559 106.146 315.249L106.146 315.465C106.146 316.155 106.706 316.714 107.396 316.714L107.613 316.714Z" fill="url(#paint56_linear)"/>
<path d="M65.7179 315.465C65.7179 316.155 65.158 316.714 64.4674 316.714L64.2505 316.714C63.5598 316.714 63 316.155 63 315.465L63 315.249C63 314.559 63.5598 314 64.2505 314L64.4674 314C65.158 314 65.7179 314.559 65.7179 315.249L65.7179 315.465Z" fill="url(#paint57_linear)"/>
<path d="M150.759 374.619C151.449 374.619 152.009 374.06 152.009 373.37L152.009 373.154C152.009 372.464 151.449 371.905 150.759 371.905L150.542 371.905C149.851 371.905 149.291 372.464 149.291 373.154L149.291 373.37C149.291 374.06 149.851 374.619 150.542 374.619L150.759 374.619Z" fill="url(#paint58_linear)"/>
<path d="M108.864 373.37C108.864 374.06 108.304 374.619 107.613 374.619L107.396 374.619C106.706 374.619 106.146 374.06 106.146 373.37L106.146 373.154C106.146 372.464 106.706 371.905 107.396 371.905L107.613 371.905C108.304 371.905 108.864 372.464 108.864 373.154L108.864 373.37Z" fill="url(#paint59_linear)"/>
<path d="M64.4674 374.619C65.158 374.619 65.7179 374.06 65.7179 373.37L65.7179 373.154C65.7179 372.464 65.158 371.905 64.4674 371.905L64.2505 371.905C63.5598 371.905 63 372.464 63 373.154L63 373.37C63 374.06 63.5598 374.619 64.2505 374.619L64.4674 374.619Z" fill="url(#paint60_linear)"/>
<path d="M165.254 447C165.945 447 166.504 446.441 166.504 445.751L166.504 445.535C166.504 444.845 165.945 444.286 165.254 444.286L165.037 444.286C164.346 444.286 163.787 444.845 163.787 445.535L163.787 445.751C163.787 446.441 164.346 447 165.037 447L165.254 447Z" fill="url(#paint61_linear)"/>
<path d="M123.359 445.751C123.359 446.441 122.799 447 122.108 447L121.891 447C121.201 447 120.641 446.441 120.641 445.751L120.641 445.535C120.641 444.845 121.201 444.286 121.891 444.286L122.108 444.286C122.799 444.286 123.359 444.845 123.359 445.535L123.359 445.751Z" fill="url(#paint62_linear)"/>
<path d="M78.9625 447C79.6532 447 80.213 446.441 80.213 445.751L80.213 445.535C80.213 444.845 79.6532 444.286 78.9625 444.286L78.7456 444.286C78.055 444.286 77.4951 444.845 77.4951 445.535L77.4951 445.751C77.4951 446.441 78.055 447 78.7456 447L78.9625 447Z" fill="url(#paint63_linear)"/>
<path d="M166.504 358.894C166.504 359.584 165.945 360.143 165.254 360.143L165.037 360.143C164.346 360.143 163.787 359.584 163.787 358.894L163.787 358.678C163.787 357.988 164.346 357.429 165.037 357.429L165.254 357.429C165.945 357.429 166.504 357.988 166.504 358.678L166.504 358.894Z" fill="url(#paint64_linear)"/>
<path d="M122.108 360.143C122.799 360.143 123.359 359.584 123.359 358.894L123.359 358.678C123.359 357.988 122.799 357.429 122.108 357.429L121.891 357.429C121.201 357.429 120.641 357.988 120.641 358.678L120.641 358.894C120.641 359.584 121.201 360.143 121.891 360.143L122.108 360.143Z" fill="url(#paint65_linear)"/>
<path d="M80.213 358.894C80.213 359.584 79.6532 360.143 78.9625 360.143L78.7456 360.143C78.055 360.143 77.4951 359.584 77.4951 358.894L77.4951 358.678C77.4951 357.988 78.055 357.429 78.7456 357.429L78.9625 357.429C79.6532 357.429 80.213 357.988 80.213 358.678L80.213 358.894Z" fill="url(#paint66_linear)"/>
<path d="M165.254 418.047C165.945 418.047 166.504 417.488 166.504 416.799L166.504 416.582C166.504 415.892 165.945 415.333 165.254 415.333L165.037 415.333C164.346 415.333 163.787 415.892 163.787 416.582L163.787 416.799C163.787 417.488 164.346 418.047 165.037 418.047L165.254 418.047Z" fill="url(#paint67_linear)"/>
<path d="M123.359 416.799C123.359 417.488 122.799 418.047 122.108 418.047L121.891 418.047C121.201 418.047 120.641 417.488 120.641 416.799L120.641 416.582C120.641 415.892 121.201 415.333 121.891 415.333L122.108 415.333C122.799 415.333 123.359 415.892 123.359 416.582L123.359 416.799Z" fill="url(#paint68_linear)"/>
<path d="M78.9625 418.047C79.6532 418.047 80.213 417.488 80.213 416.799L80.213 416.582C80.213 415.892 79.6532 415.333 78.9625 415.333L78.7456 415.333C78.055 415.333 77.4951 415.892 77.4951 416.582L77.4951 416.799C77.4951 417.488 78.055 418.047 78.7456 418.047L78.9625 418.047Z" fill="url(#paint69_linear)"/>
<path d="M166.504 329.942C166.504 330.632 165.945 331.191 165.254 331.191L165.037 331.191C164.346 331.191 163.787 330.632 163.787 329.942L163.787 329.725C163.787 329.036 164.346 328.477 165.037 328.477L165.254 328.477C165.945 328.477 166.504 329.036 166.504 329.725L166.504 329.942Z" fill="url(#paint70_linear)"/>
<path d="M122.108 331.191C122.799 331.191 123.359 330.632 123.359 329.942L123.359 329.725C123.359 329.036 122.799 328.477 122.108 328.477L121.891 328.477C121.201 328.477 120.641 329.036 120.641 329.725L120.641 329.942C120.641 330.632 121.201 331.191 121.891 331.191L122.108 331.191Z" fill="url(#paint71_linear)"/>
<path d="M80.213 329.942C80.213 330.632 79.6532 331.191 78.9625 331.191L78.7456 331.191C78.055 331.191 77.4951 330.632 77.4951 329.942L77.4951 329.725C77.4951 329.036 78.055 328.477 78.7456 328.477L78.9625 328.477C79.6532 328.477 80.213 329.036 80.213 329.725L80.213 329.942Z" fill="url(#paint72_linear)"/>
<path d="M165.254 389.095C165.945 389.095 166.504 388.536 166.504 387.846L166.504 387.63C166.504 386.94 165.945 386.381 165.254 386.381L165.037 386.381C164.346 386.381 163.787 386.94 163.787 387.63L163.787 387.846C163.787 388.536 164.346 389.095 165.037 389.095L165.254 389.095Z" fill="url(#paint73_linear)"/>
<path d="M123.359 387.846C123.359 388.536 122.799 389.095 122.108 389.095L121.891 389.095C121.201 389.095 120.641 388.536 120.641 387.846L120.641 387.63C120.641 386.94 121.201 386.381 121.891 386.381L122.108 386.381C122.799 386.381 123.359 386.94 123.359 387.63L123.359 387.846Z" fill="url(#paint74_linear)"/>
<path d="M78.9625 389.095C79.6532 389.095 80.213 388.536 80.213 387.846L80.213 387.63C80.213 386.94 79.6532 386.381 78.9625 386.381L78.7456 386.381C78.055 386.381 77.4951 386.94 77.4951 387.63L77.4951 387.846C77.4951 388.536 78.055 389.095 78.7456 389.095L78.9625 389.095Z" fill="url(#paint75_linear)"/>
<path d="M165.254 432.524C165.945 432.524 166.504 431.965 166.504 431.275L166.504 431.058C166.504 430.369 165.945 429.81 165.254 429.81L165.037 429.81C164.346 429.81 163.787 430.369 163.787 431.058L163.787 431.275C163.787 431.965 164.346 432.524 165.037 432.524L165.254 432.524Z" fill="url(#paint76_linear)"/>
<path d="M123.359 431.275C123.359 431.965 122.799 432.524 122.108 432.524L121.891 432.524C121.201 432.524 120.641 431.965 120.641 431.275L120.641 431.058C120.641 430.369 121.201 429.81 121.891 429.81L122.108 429.81C122.799 429.81 123.359 430.369 123.359 431.058L123.359 431.275Z" fill="url(#paint77_linear)"/>
<path d="M78.9625 432.524C79.6532 432.524 80.213 431.965 80.213 431.275L80.213 431.058C80.213 430.369 79.6532 429.81 78.9625 429.81L78.7456 429.81C78.055 429.81 77.4951 430.369 77.4951 431.058L77.4951 431.275C77.4951 431.965 78.055 432.524 78.7456 432.524L78.9625 432.524Z" fill="url(#paint78_linear)"/>
<path d="M166.504 344.418C166.504 345.108 165.945 345.667 165.254 345.667L165.037 345.667C164.346 345.667 163.787 345.108 163.787 344.418L163.787 344.201C163.787 343.512 164.346 342.953 165.037 342.953L165.254 342.953C165.945 342.953 166.504 343.512 166.504 344.201L166.504 344.418Z" fill="url(#paint79_linear)"/>
<path d="M122.108 345.667C122.799 345.667 123.359 345.108 123.359 344.418L123.359 344.201C123.359 343.512 122.799 342.953 122.108 342.953L121.891 342.953C121.201 342.953 120.641 343.512 120.641 344.201L120.641 344.418C120.641 345.108 121.201 345.667 121.891 345.667L122.108 345.667Z" fill="url(#paint80_linear)"/>
<path d="M80.213 344.418C80.213 345.108 79.6532 345.667 78.9625 345.667L78.7456 345.667C78.055 345.667 77.4951 345.108 77.4951 344.418L77.4951 344.201C77.4951 343.512 78.055 342.953 78.7456 342.953L78.9625 342.953C79.6532 342.953 80.213 343.512 80.213 344.201L80.213 344.418Z" fill="url(#paint81_linear)"/>
<path d="M165.254 403.572C165.945 403.572 166.504 403.013 166.504 402.323L166.504 402.106C166.504 401.417 165.945 400.857 165.254 400.857L165.037 400.857C164.346 400.857 163.787 401.417 163.787 402.106L163.787 402.323C163.787 403.013 164.346 403.572 165.037 403.572L165.254 403.572Z" fill="url(#paint82_linear)"/>
<path d="M123.359 402.323C123.359 403.013 122.799 403.572 122.108 403.572L121.891 403.572C121.201 403.572 120.641 403.013 120.641 402.323L120.641 402.106C120.641 401.417 121.201 400.857 121.891 400.857L122.108 400.857C122.799 400.857 123.359 401.417 123.359 402.106L123.359 402.323Z" fill="url(#paint83_linear)"/>
<path d="M78.9625 403.572C79.6532 403.572 80.213 403.013 80.213 402.323L80.213 402.106C80.213 401.417 79.6532 400.857 78.9625 400.857L78.7456 400.857C78.055 400.857 77.4951 401.417 77.4951 402.106L77.4951 402.323C77.4951 403.013 78.055 403.572 78.7456 403.572L78.9625 403.572Z" fill="url(#paint84_linear)"/>
<path d="M166.504 315.465C166.504 316.155 165.945 316.714 165.254 316.714L165.037 316.714C164.346 316.714 163.787 316.155 163.787 315.465L163.787 315.249C163.787 314.559 164.346 314 165.037 314L165.254 314C165.945 314 166.504 314.559 166.504 315.249L166.504 315.465Z" fill="url(#paint85_linear)"/>
<path d="M122.108 316.714C122.799 316.714 123.359 316.155 123.359 315.465L123.359 315.249C123.359 314.559 122.799 314 122.108 314L121.891 314C121.201 314 120.641 314.559 120.641 315.249L120.641 315.465C120.641 316.155 121.201 316.714 121.891 316.714L122.108 316.714Z" fill="url(#paint86_linear)"/>
<path d="M80.213 315.465C80.213 316.155 79.6532 316.714 78.9625 316.714L78.7456 316.714C78.055 316.714 77.4951 316.155 77.4951 315.465L77.4951 315.249C77.4951 314.559 78.055 314 78.7456 314L78.9625 314C79.6532 314 80.213 314.559 80.213 315.249L80.213 315.465Z" fill="url(#paint87_linear)"/>
<path d="M165.254 374.619C165.945 374.619 166.504 374.06 166.504 373.37L166.504 373.154C166.504 372.464 165.945 371.905 165.254 371.905L165.037 371.905C164.346 371.905 163.787 372.464 163.787 373.154L163.787 373.37C163.787 374.06 164.346 374.619 165.037 374.619L165.254 374.619Z" fill="url(#paint88_linear)"/>
<path d="M123.359 373.37C123.359 374.06 122.799 374.619 122.108 374.619L121.891 374.619C121.201 374.619 120.641 374.06 120.641 373.37L120.641 373.154C120.641 372.464 121.201 371.905 121.891 371.905L122.108 371.905C122.799 371.905 123.359 372.464 123.359 373.154L123.359 373.37Z" fill="url(#paint89_linear)"/>
<path d="M78.9625 374.619C79.6532 374.619 80.213 374.06 80.213 373.37L80.213 373.154C80.213 372.464 79.6532 371.905 78.9625 371.905L78.7456 371.905C78.055 371.905 77.4951 372.464 77.4951 373.154L77.4951 373.37C77.4951 374.06 78.055 374.619 78.7456 374.619L78.9625 374.619Z" fill="url(#paint90_linear)"/>
<path d="M510 286.742C510 287.437 509.44 288 508.749 288L508.532 288C507.842 288 507.282 287.437 507.282 286.742L507.282 286.524C507.282 285.829 507.842 285.265 508.532 285.265L508.749 285.265C509.44 285.265 510 285.829 510 286.524L510 286.742Z" fill="url(#paint91_linear)"/>
<path d="M466.854 286.742C466.854 287.437 466.294 288 465.604 288L465.387 288C464.696 288 464.136 287.437 464.136 286.742L464.136 286.524C464.136 285.829 464.696 285.265 465.387 285.265L465.604 285.265C466.294 285.265 466.854 285.829 466.854 286.524L466.854 286.742Z" fill="url(#paint92_linear)"/>
<path d="M422.458 288C423.148 288 423.708 287.437 423.708 286.742L423.708 286.524C423.708 285.829 423.148 285.265 422.458 285.265L422.241 285.265C421.55 285.265 420.99 285.829 420.99 286.524L420.99 286.742C420.99 287.437 421.55 288 422.241 288L422.458 288Z" fill="url(#paint93_linear)"/>
<path d="M510 199.232C510 199.927 509.44 200.49 508.75 200.49L508.533 200.49C507.842 200.49 507.282 199.927 507.282 199.232L507.282 199.013C507.282 198.319 507.842 197.755 508.533 197.755L508.75 197.755C509.44 197.755 510 198.319 510 199.013L510 199.232Z" fill="url(#paint94_linear)"/>
<path d="M465.604 200.49C466.294 200.49 466.854 199.927 466.854 199.232L466.854 199.013C466.854 198.319 466.294 197.755 465.604 197.755L465.387 197.755C464.696 197.755 464.136 198.319 464.136 199.013L464.136 199.232C464.136 199.927 464.696 200.49 465.387 200.49L465.604 200.49Z" fill="url(#paint95_linear)"/>
<path d="M423.709 199.232C423.709 199.927 423.149 200.49 422.458 200.49L422.241 200.49C421.551 200.49 420.991 199.927 420.991 199.232L420.991 199.013C420.991 198.319 421.551 197.755 422.241 197.755L422.458 197.755C423.149 197.755 423.709 198.319 423.709 199.013L423.709 199.232Z" fill="url(#paint96_linear)"/>
<path d="M508.75 258.83C509.44 258.83 510 258.266 510 257.571L510 257.353C510 256.658 509.44 256.095 508.75 256.095L508.533 256.095C507.842 256.095 507.282 256.658 507.282 257.353L507.282 257.571C507.282 258.266 507.842 258.83 508.533 258.83L508.75 258.83Z" fill="url(#paint97_linear)"/>
<path d="M466.854 257.571C466.854 258.266 466.294 258.83 465.604 258.83L465.387 258.83C464.696 258.83 464.136 258.266 464.136 257.571L464.136 257.353C464.136 256.658 464.696 256.095 465.387 256.095L465.604 256.095C466.294 256.095 466.854 256.658 466.854 257.353L466.854 257.571Z" fill="url(#paint98_linear)"/>
<path d="M422.458 258.83C423.149 258.83 423.709 258.266 423.709 257.571L423.709 257.353C423.709 256.658 423.149 256.095 422.458 256.095L422.241 256.095C421.551 256.095 420.991 256.658 420.991 257.353L420.991 257.571C420.991 258.266 421.551 258.83 422.241 258.83L422.458 258.83Z" fill="url(#paint99_linear)"/>
<path d="M510 170.062C510 170.757 509.44 171.32 508.75 171.32L508.533 171.32C507.842 171.32 507.282 170.757 507.282 170.062L507.282 169.844C507.282 169.149 507.842 168.585 508.533 168.585L508.75 168.585C509.44 168.585 510 169.149 510 169.844L510 170.062Z" fill="url(#paint100_linear)"/>
<path d="M465.604 171.32C466.294 171.32 466.854 170.757 466.854 170.062L466.854 169.844C466.854 169.149 466.294 168.585 465.604 168.585L465.387 168.585C464.696 168.585 464.136 169.149 464.136 169.844L464.136 170.062C464.136 170.757 464.696 171.32 465.387 171.32L465.604 171.32Z" fill="url(#paint101_linear)"/>
<path d="M423.709 170.062C423.709 170.757 423.149 171.32 422.458 171.32L422.241 171.32C421.551 171.32 420.991 170.757 420.991 170.062L420.991 169.844C420.991 169.149 421.551 168.585 422.241 168.585L422.458 168.585C423.149 168.585 423.709 169.149 423.709 169.844L423.709 170.062Z" fill="url(#paint102_linear)"/>
<path d="M508.75 229.66C509.44 229.66 510 229.097 510 228.402L510 228.183C510 227.488 509.44 226.925 508.75 226.925L508.533 226.925C507.842 226.925 507.282 227.488 507.282 228.183L507.282 228.402C507.282 229.097 507.842 229.66 508.533 229.66L508.75 229.66Z" fill="url(#paint103_linear)"/>
<path d="M466.854 228.402C466.854 229.097 466.294 229.66 465.604 229.66L465.387 229.66C464.696 229.66 464.136 229.097 464.136 228.402L464.136 228.183C464.136 227.488 464.696 226.925 465.387 226.925L465.604 226.925C466.294 226.925 466.854 227.488 466.854 228.183L466.854 228.402Z" fill="url(#paint104_linear)"/>
<path d="M422.458 229.66C423.149 229.66 423.709 229.096 423.709 228.402L423.709 228.183C423.709 227.488 423.149 226.925 422.458 226.925L422.241 226.925C421.551 226.925 420.991 227.488 420.991 228.183L420.991 228.402C420.991 229.096 421.551 229.66 422.241 229.66L422.458 229.66Z" fill="url(#paint105_linear)"/>
<path d="M508.75 273.415C509.44 273.415 510 272.852 510 272.157L510 271.939C510 271.244 509.44 270.68 508.75 270.68L508.533 270.68C507.842 270.68 507.282 271.244 507.282 271.939L507.282 272.157C507.282 272.852 507.842 273.415 508.533 273.415L508.75 273.415Z" fill="url(#paint106_linear)"/>
<path d="M466.854 272.157C466.854 272.852 466.294 273.415 465.604 273.415L465.387 273.415C464.696 273.415 464.136 272.852 464.136 272.157L464.136 271.939C464.136 271.244 464.696 270.68 465.387 270.68L465.604 270.68C466.294 270.68 466.854 271.244 466.854 271.939L466.854 272.157Z" fill="url(#paint107_linear)"/>
<path d="M422.458 273.415C423.149 273.415 423.709 272.852 423.709 272.157L423.709 271.939C423.709 271.244 423.149 270.68 422.458 270.68L422.241 270.68C421.551 270.68 420.991 271.244 420.991 271.939L420.991 272.157C420.991 272.852 421.551 273.415 422.241 273.415L422.458 273.415Z" fill="url(#paint108_linear)"/>
<path d="M510 184.647C510 185.342 509.44 185.905 508.75 185.905L508.533 185.905C507.842 185.905 507.282 185.342 507.282 184.647L507.282 184.429C507.282 183.734 507.842 183.17 508.533 183.17L508.75 183.17C509.44 183.17 510 183.734 510 184.429L510 184.647Z" fill="url(#paint109_linear)"/>
<path d="M465.604 185.905C466.294 185.905 466.854 185.342 466.854 184.647L466.854 184.429C466.854 183.734 466.294 183.17 465.604 183.17L465.387 183.17C464.696 183.17 464.136 183.734 464.136 184.429L464.136 184.647C464.136 185.342 464.696 185.905 465.387 185.905L465.604 185.905Z" fill="url(#paint110_linear)"/>
<path d="M423.709 184.647C423.709 185.342 423.149 185.905 422.458 185.905L422.241 185.905C421.551 185.905 420.991 185.342 420.991 184.647L420.991 184.429C420.991 183.734 421.551 183.17 422.241 183.17L422.458 183.17C423.149 183.17 423.709 183.734 423.709 184.429L423.709 184.647Z" fill="url(#paint111_linear)"/>
<path d="M508.75 244.245C509.44 244.245 510 243.682 510 242.987L510 242.769C510 242.074 509.44 241.51 508.75 241.51L508.533 241.51C507.842 241.51 507.282 242.074 507.282 242.769L507.282 242.987C507.282 243.682 507.842 244.245 508.533 244.245L508.75 244.245Z" fill="url(#paint112_linear)"/>
<path d="M466.854 242.987C466.854 243.682 466.294 244.245 465.604 244.245L465.387 244.245C464.696 244.245 464.136 243.682 464.136 242.987L464.136 242.769C464.136 242.074 464.696 241.51 465.387 241.51L465.604 241.51C466.294 241.51 466.854 242.074 466.854 242.769L466.854 242.987Z" fill="url(#paint113_linear)"/>
<path d="M422.458 244.245C423.149 244.245 423.709 243.682 423.709 242.987L423.709 242.769C423.709 242.074 423.149 241.51 422.458 241.51L422.241 241.51C421.551 241.51 420.991 242.074 420.991 242.769L420.991 242.987C420.991 243.682 421.551 244.245 422.241 244.245L422.458 244.245Z" fill="url(#paint114_linear)"/>
<path d="M510 155.476C510 156.171 509.44 156.735 508.75 156.735L508.533 156.735C507.842 156.735 507.282 156.171 507.282 155.476L507.282 155.258C507.282 154.563 507.842 154 508.533 154L508.75 154C509.44 154 510 154.563 510 155.258L510 155.476Z" fill="url(#paint115_linear)"/>
<path d="M465.604 156.735C466.294 156.735 466.854 156.171 466.854 155.476L466.854 155.258C466.854 154.563 466.294 154 465.604 154L465.387 154C464.696 154 464.136 154.563 464.136 155.258L464.136 155.476C464.136 156.171 464.696 156.735 465.387 156.735L465.604 156.735Z" fill="url(#paint116_linear)"/>
<path d="M423.709 155.476C423.709 156.171 423.149 156.735 422.458 156.735L422.241 156.735C421.551 156.735 420.991 156.171 420.991 155.476L420.991 155.258C420.991 154.563 421.551 154 422.241 154L422.458 154C423.149 154 423.709 154.563 423.709 155.258L423.709 155.476Z" fill="url(#paint117_linear)"/>
<path d="M508.75 215.075C509.44 215.075 510 214.512 510 213.817L510 213.598C510 212.904 509.44 212.34 508.75 212.34L508.533 212.34C507.842 212.34 507.282 212.904 507.282 213.598L507.282 213.817C507.282 214.512 507.842 215.075 508.533 215.075L508.75 215.075Z" fill="url(#paint118_linear)"/>
<path d="M466.854 213.817C466.854 214.512 466.294 215.075 465.604 215.075L465.387 215.075C464.696 215.075 464.136 214.512 464.136 213.817L464.136 213.598C464.136 212.904 464.696 212.34 465.387 212.34L465.604 212.34C466.294 212.34 466.854 212.904 466.854 213.598L466.854 213.817Z" fill="url(#paint119_linear)"/>
<path d="M422.458 215.075C423.149 215.075 423.709 214.512 423.709 213.817L423.709 213.598C423.709 212.904 423.149 212.34 422.458 212.34L422.241 212.34C421.551 212.34 420.991 212.904 420.991 213.598L420.991 213.817C420.991 214.512 421.551 215.075 422.241 215.075L422.458 215.075Z" fill="url(#paint120_linear)"/>
<path d="M479.759 288C480.449 288 481.009 287.437 481.009 286.742L481.009 286.524C481.009 285.829 480.449 285.265 479.759 285.265L479.542 285.265C478.851 285.265 478.291 285.829 478.291 286.524L478.291 286.742C478.291 287.437 478.851 288 479.542 288L479.759 288Z" fill="url(#paint121_linear)"/>
<path d="M437.864 286.742C437.864 287.437 437.304 288 436.613 288L436.396 288C435.706 288 435.146 287.437 435.146 286.742L435.146 286.524C435.146 285.829 435.706 285.265 436.396 285.265L436.613 285.265C437.304 285.265 437.864 285.829 437.864 286.524L437.864 286.742Z" fill="url(#paint122_linear)"/>
<path d="M393.467 288C394.158 288 394.718 287.437 394.718 286.742L394.718 286.524C394.718 285.829 394.158 285.265 393.467 285.265L393.25 285.265C392.56 285.265 392 285.829 392 286.524L392 286.742C392 287.437 392.56 288 393.25 288L393.467 288Z" fill="url(#paint123_linear)"/>
<path d="M481.009 199.232C481.009 199.927 480.449 200.49 479.759 200.49L479.542 200.49C478.851 200.49 478.291 199.927 478.291 199.232L478.291 199.013C478.291 198.319 478.851 197.755 479.542 197.755L479.759 197.755C480.449 197.755 481.009 198.319 481.009 199.013L481.009 199.232Z" fill="url(#paint124_linear)"/>
<path d="M436.613 200.49C437.304 200.49 437.864 199.927 437.864 199.232L437.864 199.013C437.864 198.319 437.304 197.755 436.613 197.755L436.396 197.755C435.706 197.755 435.146 198.319 435.146 199.013L435.146 199.232C435.146 199.927 435.706 200.49 436.396 200.49L436.613 200.49Z" fill="url(#paint125_linear)"/>
<path d="M394.718 199.232C394.718 199.927 394.158 200.49 393.467 200.49L393.25 200.49C392.56 200.49 392 199.927 392 199.232L392 199.013C392 198.319 392.56 197.755 393.25 197.755L393.467 197.755C394.158 197.755 394.718 198.319 394.718 199.013L394.718 199.232Z" fill="url(#paint126_linear)"/>
<path d="M479.759 258.83C480.449 258.83 481.009 258.266 481.009 257.571L481.009 257.353C481.009 256.658 480.449 256.095 479.759 256.095L479.542 256.095C478.851 256.095 478.291 256.658 478.291 257.353L478.291 257.571C478.291 258.266 478.851 258.83 479.542 258.83L479.759 258.83Z" fill="url(#paint127_linear)"/>
<path d="M437.864 257.571C437.864 258.266 437.304 258.83 436.613 258.83L436.396 258.83C435.706 258.83 435.146 258.266 435.146 257.571L435.146 257.353C435.146 256.658 435.706 256.095 436.396 256.095L436.613 256.095C437.304 256.095 437.864 256.658 437.864 257.353L437.864 257.571Z" fill="url(#paint128_linear)"/>
<path d="M393.467 258.83C394.158 258.83 394.718 258.266 394.718 257.571L394.718 257.353C394.718 256.658 394.158 256.095 393.467 256.095L393.25 256.095C392.56 256.095 392 256.658 392 257.353L392 257.571C392 258.266 392.56 258.83 393.25 258.83L393.467 258.83Z" fill="url(#paint129_linear)"/>
<path d="M481.009 170.062C481.009 170.757 480.449 171.32 479.759 171.32L479.542 171.32C478.851 171.32 478.291 170.757 478.291 170.062L478.291 169.844C478.291 169.149 478.851 168.585 479.542 168.585L479.759 168.585C480.449 168.585 481.009 169.149 481.009 169.844L481.009 170.062Z" fill="url(#paint130_linear)"/>
<path d="M436.613 171.32C437.304 171.32 437.864 170.757 437.864 170.062L437.864 169.844C437.864 169.149 437.304 168.585 436.613 168.585L436.396 168.585C435.706 168.585 435.146 169.149 435.146 169.844L435.146 170.062C435.146 170.757 435.706 171.32 436.396 171.32L436.613 171.32Z" fill="url(#paint131_linear)"/>
<path d="M394.718 170.062C394.718 170.757 394.158 171.32 393.467 171.32L393.25 171.32C392.56 171.32 392 170.757 392 170.062L392 169.844C392 169.149 392.56 168.585 393.25 168.585L393.467 168.585C394.158 168.585 394.718 169.149 394.718 169.844L394.718 170.062Z" fill="url(#paint132_linear)"/>
<path d="M479.759 229.66C480.449 229.66 481.009 229.097 481.009 228.402L481.009 228.183C481.009 227.488 480.449 226.925 479.759 226.925L479.542 226.925C478.851 226.925 478.291 227.488 478.291 228.183L478.291 228.402C478.291 229.097 478.851 229.66 479.542 229.66L479.759 229.66Z" fill="url(#paint133_linear)"/>
<path d="M437.864 228.402C437.864 229.096 437.304 229.66 436.613 229.66L436.396 229.66C435.706 229.66 435.146 229.096 435.146 228.402L435.146 228.183C435.146 227.488 435.706 226.925 436.396 226.925L436.613 226.925C437.304 226.925 437.864 227.488 437.864 228.183L437.864 228.402Z" fill="url(#paint134_linear)"/>
<path d="M393.467 229.66C394.158 229.66 394.718 229.096 394.718 228.402L394.718 228.183C394.718 227.488 394.158 226.925 393.467 226.925L393.25 226.925C392.56 226.925 392 227.488 392 228.183L392 228.402C392 229.096 392.56 229.66 393.25 229.66L393.467 229.66Z" fill="url(#paint135_linear)"/>
<path d="M479.759 273.415C480.449 273.415 481.009 272.852 481.009 272.157L481.009 271.939C481.009 271.244 480.449 270.68 479.759 270.68L479.542 270.68C478.851 270.68 478.291 271.244 478.291 271.939L478.291 272.157C478.291 272.852 478.851 273.415 479.542 273.415L479.759 273.415Z" fill="url(#paint136_linear)"/>
<path d="M437.864 272.157C437.864 272.852 437.304 273.415 436.613 273.415L436.396 273.415C435.706 273.415 435.146 272.852 435.146 272.157L435.146 271.939C435.146 271.244 435.706 270.68 436.396 270.68L436.613 270.68C437.304 270.68 437.864 271.244 437.864 271.939L437.864 272.157Z" fill="url(#paint137_linear)"/>
<path d="M393.467 273.415C394.158 273.415 394.718 272.852 394.718 272.157L394.718 271.939C394.718 271.244 394.158 270.68 393.467 270.68L393.25 270.68C392.56 270.68 392 271.244 392 271.939L392 272.157C392 272.852 392.56 273.415 393.25 273.415L393.467 273.415Z" fill="url(#paint138_linear)"/>
<path d="M481.009 184.647C481.009 185.342 480.449 185.905 479.759 185.905L479.542 185.905C478.851 185.905 478.291 185.342 478.291 184.647L478.291 184.429C478.291 183.734 478.851 183.17 479.542 183.17L479.759 183.17C480.449 183.17 481.009 183.734 481.009 184.429L481.009 184.647Z" fill="url(#paint139_linear)"/>
<path d="M436.613 185.905C437.304 185.905 437.864 185.342 437.864 184.647L437.864 184.429C437.864 183.734 437.304 183.17 436.613 183.17L436.396 183.17C435.706 183.17 435.146 183.734 435.146 184.429L435.146 184.647C435.146 185.342 435.706 185.905 436.396 185.905L436.613 185.905Z" fill="url(#paint140_linear)"/>
<path d="M394.718 184.647C394.718 185.342 394.158 185.905 393.467 185.905L393.25 185.905C392.56 185.905 392 185.342 392 184.647L392 184.429C392 183.734 392.56 183.17 393.25 183.17L393.467 183.17C394.158 183.17 394.718 183.734 394.718 184.429L394.718 184.647Z" fill="url(#paint141_linear)"/>
<path d="M479.759 244.245C480.449 244.245 481.009 243.682 481.009 242.987L481.009 242.769C481.009 242.074 480.449 241.51 479.759 241.51L479.542 241.51C478.851 241.51 478.291 242.074 478.291 242.769L478.291 242.987C478.291 243.682 478.851 244.245 479.542 244.245L479.759 244.245Z" fill="url(#paint142_linear)"/>
<path d="M437.864 242.987C437.864 243.682 437.304 244.245 436.613 244.245L436.396 244.245C435.706 244.245 435.146 243.682 435.146 242.987L435.146 242.769C435.146 242.074 435.706 241.51 436.396 241.51L436.613 241.51C437.304 241.51 437.864 242.074 437.864 242.769L437.864 242.987Z" fill="url(#paint143_linear)"/>
<path d="M393.467 244.245C394.158 244.245 394.718 243.682 394.718 242.987L394.718 242.769C394.718 242.074 394.158 241.51 393.467 241.51L393.25 241.51C392.56 241.51 392 242.074 392 242.769L392 242.987C392 243.682 392.56 244.245 393.25 244.245L393.467 244.245Z" fill="url(#paint144_linear)"/>
<path d="M481.009 155.476C481.009 156.171 480.449 156.735 479.759 156.735L479.542 156.735C478.851 156.735 478.291 156.171 478.291 155.476L478.291 155.258C478.291 154.563 478.851 154 479.542 154L479.759 154C480.449 154 481.009 154.563 481.009 155.258L481.009 155.476Z" fill="url(#paint145_linear)"/>
<path d="M436.613 156.735C437.304 156.735 437.864 156.171 437.864 155.476L437.864 155.258C437.864 154.563 437.304 154 436.613 154L436.396 154C435.706 154 435.146 154.563 435.146 155.258L435.146 155.476C435.146 156.171 435.706 156.735 436.396 156.735L436.613 156.735Z" fill="url(#paint146_linear)"/>
<path d="M394.718 155.476C394.718 156.171 394.158 156.735 393.467 156.735L393.25 156.735C392.56 156.735 392 156.171 392 155.476L392 155.258C392 154.563 392.56 154 393.25 154L393.467 154C394.158 154 394.718 154.563 394.718 155.258L394.718 155.476Z" fill="url(#paint147_linear)"/>
<path d="M479.759 215.075C480.449 215.075 481.009 214.512 481.009 213.817L481.009 213.598C481.009 212.904 480.449 212.34 479.759 212.34L479.542 212.34C478.851 212.34 478.291 212.904 478.291 213.598L478.291 213.817C478.291 214.512 478.851 215.075 479.542 215.075L479.759 215.075Z" fill="url(#paint148_linear)"/>
<path d="M437.864 213.817C437.864 214.512 437.304 215.075 436.613 215.075L436.396 215.075C435.706 215.075 435.146 214.512 435.146 213.817L435.146 213.598C435.146 212.904 435.706 212.34 436.396 212.34L436.613 212.34C437.304 212.34 437.864 212.904 437.864 213.598L437.864 213.817Z" fill="url(#paint149_linear)"/>
<path d="M393.467 215.075C394.158 215.075 394.718 214.512 394.718 213.817L394.718 213.598C394.718 212.904 394.158 212.34 393.467 212.34L393.25 212.34C392.56 212.34 392 212.904 392 213.598L392 213.817C392 214.512 392.56 215.075 393.25 215.075L393.467 215.075Z" fill="url(#paint150_linear)"/>
<path d="M494.254 288C494.945 288 495.504 287.437 495.504 286.742L495.504 286.524C495.504 285.829 494.945 285.265 494.254 285.265L494.037 285.265C493.346 285.265 492.787 285.829 492.787 286.524L492.787 286.742C492.787 287.437 493.346 288 494.037 288L494.254 288Z" fill="url(#paint151_linear)"/>
<path d="M452.359 286.742C452.359 287.437 451.799 288 451.108 288L450.891 288C450.201 288 449.641 287.437 449.641 286.742L449.641 286.524C449.641 285.829 450.201 285.265 450.891 285.265L451.108 285.265C451.799 285.265 452.359 285.829 452.359 286.524L452.359 286.742Z" fill="url(#paint152_linear)"/>
<path d="M407.963 288C408.653 288 409.213 287.437 409.213 286.742L409.213 286.524C409.213 285.829 408.653 285.265 407.963 285.265L407.746 285.265C407.055 285.265 406.495 285.829 406.495 286.524L406.495 286.742C406.495 287.437 407.055 288 407.746 288L407.963 288Z" fill="url(#paint153_linear)"/>
<path d="M495.504 199.232C495.504 199.927 494.945 200.49 494.254 200.49L494.037 200.49C493.346 200.49 492.787 199.927 492.787 199.232L492.787 199.013C492.787 198.319 493.346 197.755 494.037 197.755L494.254 197.755C494.945 197.755 495.504 198.319 495.504 199.013L495.504 199.232Z" fill="url(#paint154_linear)"/>
<path d="M451.108 200.49C451.799 200.49 452.359 199.927 452.359 199.232L452.359 199.013C452.359 198.319 451.799 197.755 451.108 197.755L450.891 197.755C450.201 197.755 449.641 198.319 449.641 199.013L449.641 199.232C449.641 199.927 450.201 200.49 450.891 200.49L451.108 200.49Z" fill="url(#paint155_linear)"/>
<path d="M409.213 199.232C409.213 199.927 408.653 200.49 407.963 200.49L407.746 200.49C407.055 200.49 406.495 199.927 406.495 199.232L406.495 199.013C406.495 198.319 407.055 197.755 407.746 197.755L407.963 197.755C408.653 197.755 409.213 198.319 409.213 199.013L409.213 199.232Z" fill="url(#paint156_linear)"/>
<path d="M494.254 258.83C494.945 258.83 495.504 258.266 495.504 257.571L495.504 257.353C495.504 256.658 494.945 256.095 494.254 256.095L494.037 256.095C493.346 256.095 492.787 256.658 492.787 257.353L492.787 257.571C492.787 258.266 493.346 258.83 494.037 258.83L494.254 258.83Z" fill="url(#paint157_linear)"/>
<path d="M452.359 257.571C452.359 258.266 451.799 258.83 451.108 258.83L450.891 258.83C450.201 258.83 449.641 258.266 449.641 257.571L449.641 257.353C449.641 256.658 450.201 256.095 450.891 256.095L451.108 256.095C451.799 256.095 452.359 256.658 452.359 257.353L452.359 257.571Z" fill="url(#paint158_linear)"/>
<path d="M407.963 258.83C408.653 258.83 409.213 258.266 409.213 257.571L409.213 257.353C409.213 256.658 408.653 256.095 407.963 256.095L407.746 256.095C407.055 256.095 406.495 256.658 406.495 257.353L406.495 257.571C406.495 258.266 407.055 258.83 407.746 258.83L407.963 258.83Z" fill="url(#paint159_linear)"/>
<path d="M495.504 170.062C495.504 170.757 494.945 171.32 494.254 171.32L494.037 171.32C493.346 171.32 492.787 170.757 492.787 170.062L492.787 169.844C492.787 169.149 493.346 168.585 494.037 168.585L494.254 168.585C494.945 168.585 495.504 169.149 495.504 169.844L495.504 170.062Z" fill="url(#paint160_linear)"/>
<path d="M451.108 171.32C451.799 171.32 452.359 170.757 452.359 170.062L452.359 169.844C452.359 169.149 451.799 168.585 451.108 168.585L450.891 168.585C450.201 168.585 449.641 169.149 449.641 169.844L449.641 170.062C449.641 170.757 450.201 171.32 450.891 171.32L451.108 171.32Z" fill="url(#paint161_linear)"/>
<path d="M409.213 170.062C409.213 170.757 408.653 171.32 407.963 171.32L407.746 171.32C407.055 171.32 406.495 170.757 406.495 170.062L406.495 169.844C406.495 169.149 407.055 168.585 407.746 168.585L407.963 168.585C408.653 168.585 409.213 169.149 409.213 169.844L409.213 170.062Z" fill="url(#paint162_linear)"/>
<path d="M494.254 229.66C494.945 229.66 495.504 229.097 495.504 228.402L495.504 228.183C495.504 227.488 494.945 226.925 494.254 226.925L494.037 226.925C493.346 226.925 492.787 227.488 492.787 228.183L492.787 228.402C492.787 229.097 493.346 229.66 494.037 229.66L494.254 229.66Z" fill="url(#paint163_linear)"/>
<path d="M452.359 228.402C452.359 229.096 451.799 229.66 451.108 229.66L450.891 229.66C450.201 229.66 449.641 229.096 449.641 228.402L449.641 228.183C449.641 227.488 450.201 226.925 450.891 226.925L451.108 226.925C451.799 226.925 452.359 227.488 452.359 228.183L452.359 228.402Z" fill="url(#paint164_linear)"/>
<path d="M407.963 229.66C408.653 229.66 409.213 229.096 409.213 228.402L409.213 228.183C409.213 227.488 408.653 226.925 407.963 226.925L407.746 226.925C407.055 226.925 406.495 227.488 406.495 228.183L406.495 228.402C406.495 229.096 407.055 229.66 407.746 229.66L407.963 229.66Z" fill="url(#paint165_linear)"/>
<path d="M494.254 273.415C494.945 273.415 495.504 272.852 495.504 272.157L495.504 271.939C495.504 271.244 494.945 270.68 494.254 270.68L494.037 270.68C493.346 270.68 492.787 271.244 492.787 271.939L492.787 272.157C492.787 272.852 493.346 273.415 494.037 273.415L494.254 273.415Z" fill="url(#paint166_linear)"/>
<path d="M452.359 272.157C452.359 272.852 451.799 273.415 451.108 273.415L450.891 273.415C450.201 273.415 449.641 272.852 449.641 272.157L449.641 271.939C449.641 271.244 450.201 270.68 450.891 270.68L451.108 270.68C451.799 270.68 452.359 271.244 452.359 271.939L452.359 272.157Z" fill="url(#paint167_linear)"/>
<path d="M407.963 273.415C408.653 273.415 409.213 272.852 409.213 272.157L409.213 271.939C409.213 271.244 408.653 270.68 407.963 270.68L407.746 270.68C407.055 270.68 406.495 271.244 406.495 271.939L406.495 272.157C406.495 272.852 407.055 273.415 407.746 273.415L407.963 273.415Z" fill="url(#paint168_linear)"/>
<path d="M495.504 184.647C495.504 185.342 494.945 185.905 494.254 185.905L494.037 185.905C493.346 185.905 492.787 185.342 492.787 184.647L492.787 184.429C492.787 183.734 493.346 183.17 494.037 183.17L494.254 183.17C494.945 183.17 495.504 183.734 495.504 184.429L495.504 184.647Z" fill="url(#paint169_linear)"/>
<path d="M451.108 185.905C451.799 185.905 452.359 185.342 452.359 184.647L452.359 184.429C452.359 183.734 451.799 183.17 451.108 183.17L450.891 183.17C450.201 183.17 449.641 183.734 449.641 184.429L449.641 184.647C449.641 185.342 450.201 185.905 450.891 185.905L451.108 185.905Z" fill="url(#paint170_linear)"/>
<path d="M409.213 184.647C409.213 185.342 408.653 185.905 407.963 185.905L407.746 185.905C407.055 185.905 406.495 185.342 406.495 184.647L406.495 184.429C406.495 183.734 407.055 183.17 407.746 183.17L407.963 183.17C408.653 183.17 409.213 183.734 409.213 184.429L409.213 184.647Z" fill="url(#paint171_linear)"/>
<path d="M494.254 244.245C494.945 244.245 495.504 243.682 495.504 242.987L495.504 242.769C495.504 242.074 494.945 241.51 494.254 241.51L494.037 241.51C493.346 241.51 492.787 242.074 492.787 242.769L492.787 242.987C492.787 243.682 493.346 244.245 494.037 244.245L494.254 244.245Z" fill="url(#paint172_linear)"/>
<path d="M452.359 242.987C452.359 243.682 451.799 244.245 451.108 244.245L450.891 244.245C450.201 244.245 449.641 243.682 449.641 242.987L449.641 242.769C449.641 242.074 450.201 241.51 450.891 241.51L451.108 241.51C451.799 241.51 452.359 242.074 452.359 242.769L452.359 242.987Z" fill="url(#paint173_linear)"/>
<path d="M407.963 244.245C408.653 244.245 409.213 243.682 409.213 242.987L409.213 242.769C409.213 242.074 408.653 241.51 407.963 241.51L407.746 241.51C407.055 241.51 406.495 242.074 406.495 242.769L406.495 242.987C406.495 243.682 407.055 244.245 407.746 244.245L407.963 244.245Z" fill="url(#paint174_linear)"/>
<path d="M495.504 155.476C495.504 156.171 494.945 156.735 494.254 156.735L494.037 156.735C493.346 156.735 492.787 156.171 492.787 155.476L492.787 155.258C492.787 154.563 493.346 154 494.037 154L494.254 154C494.945 154 495.504 154.563 495.504 155.258L495.504 155.476Z" fill="url(#paint175_linear)"/>
<path d="M451.108 156.735C451.799 156.735 452.359 156.171 452.359 155.476L452.359 155.258C452.359 154.563 451.799 154 451.108 154L450.891 154C450.201 154 449.641 154.563 449.641 155.258L449.641 155.476C449.641 156.171 450.201 156.735 450.891 156.735L451.108 156.735Z" fill="url(#paint176_linear)"/>
<path d="M409.213 155.476C409.213 156.171 408.653 156.735 407.963 156.735L407.746 156.735C407.055 156.735 406.495 156.171 406.495 155.476L406.495 155.258C406.495 154.563 407.055 154 407.746 154L407.963 154C408.653 154 409.213 154.563 409.213 155.258L409.213 155.476Z" fill="url(#paint177_linear)"/>
<path d="M494.254 215.075C494.945 215.075 495.504 214.512 495.504 213.817L495.504 213.598C495.504 212.904 494.945 212.34 494.254 212.34L494.037 212.34C493.346 212.34 492.787 212.904 492.787 213.598L492.787 213.817C492.787 214.512 493.346 215.075 494.037 215.075L494.254 215.075Z" fill="url(#paint178_linear)"/>
<path d="M452.359 213.817C452.359 214.512 451.799 215.075 451.108 215.075L450.891 215.075C450.201 215.075 449.641 214.512 449.641 213.817L449.641 213.598C449.641 212.904 450.201 212.34 450.891 212.34L451.108 212.34C451.799 212.34 452.359 212.904 452.359 213.598L452.359 213.817Z" fill="url(#paint179_linear)"/>
<path d="M407.963 215.075C408.653 215.075 409.213 214.512 409.213 213.817L409.213 213.598C409.213 212.904 408.653 212.34 407.963 212.34L407.746 212.34C407.055 212.34 406.495 212.904 406.495 213.598L406.495 213.817C406.495 214.512 407.055 215.075 407.746 215.075L407.963 215.075Z" fill="url(#paint180_linear)"/>
<defs>
<linearGradient id="paint0_linear" x1="-613.239" y1="731.778" x2="1351.18" y2="899.377" gradientUnits="userSpaceOnUse">
<stop stop-color="#41B5D9"/>
<stop offset="1" stop-color="#41B5D9" stop-opacity="0"/>
</linearGradient>
<linearGradient id="paint1_linear" x1="-20.6261" y1="462.858" x2="146.275" y2="338.084" gradientUnits="userSpaceOnUse">
<stop stop-color="#99F3F5"/>
<stop offset="1" stop-color="#99F3F5" stop-opacity="0"/>
</linearGradient>
<linearGradient id="paint2_linear" x1="-20.6261" y1="462.858" x2="146.275" y2="338.084" gradientUnits="userSpaceOnUse">
<stop stop-color="#99F3F5"/>
<stop offset="1" stop-color="#99F3F5" stop-opacity="0"/>
</linearGradient>
<linearGradient id="paint3_linear" x1="-20.6261" y1="462.858" x2="146.275" y2="338.084" gradientUnits="userSpaceOnUse">
<stop stop-color="#99F3F5"/>
<stop offset="1" stop-color="#99F3F5" stop-opacity="0"/>
</linearGradient>
<linearGradient id="paint4_linear" x1="-20.6261" y1="462.858" x2="146.275" y2="338.084" gradientUnits="userSpaceOnUse">
<stop stop-color="#99F3F5"/>
<stop offset="1" stop-color="#99F3F5" stop-opacity="0"/>
</linearGradient>
<linearGradient id="paint5_linear" x1="-20.6261" y1="462.858" x2="146.275" y2="338.084" gradientUnits="userSpaceOnUse">
<stop stop-color="#99F3F5"/>
<stop offset="1" stop-color="#99F3F5" stop-opacity="0"/>
</linearGradient>
<linearGradient id="paint6_linear" x1="-20.6261" y1="462.858" x2="146.275" y2="338.084" gradientUnits="userSpaceOnUse">
<stop stop-color="#99F3F5"/>
<stop offset="1" stop-color="#99F3F5" stop-opacity="0"/>
</linearGradient>
<linearGradient id="paint7_linear" x1="-20.6261" y1="462.858" x2="146.275" y2="338.084" gradientUnits="userSpaceOnUse">
<stop stop-color="#99F3F5"/>
<stop offset="1" stop-color="#99F3F5" stop-opacity="0"/>
</linearGradient>
<linearGradient id="paint8_linear" x1="-20.6261" y1="462.858" x2="146.275" y2="338.084" gradientUnits="userSpaceOnUse">
<stop stop-color="#99F3F5"/>
<stop offset="1" stop-color="#99F3F5" stop-opacity="0"/>
</linearGradient>
<linearGradient id="paint9_linear" x1="-20.6261" y1="462.858" x2="146.275" y2="338.084" gradientUnits="userSpaceOnUse">
<stop stop-color="#99F3F5"/>
<stop offset="1" stop-color="#99F3F5" stop-opacity="0"/>
</linearGradient>
<linearGradient id="paint10_linear" x1="-20.6261" y1="462.858" x2="146.275" y2="338.084" gradientUnits="userSpaceOnUse">
<stop stop-color="#99F3F5"/>
<stop offset="1" stop-color="#99F3F5" stop-opacity="0"/>
</linearGradient>
<linearGradient id="paint11_linear" x1="-20.6261" y1="462.858" x2="146.275" y2="338.084" gradientUnits="userSpaceOnUse">
<stop stop-color="#99F3F5"/>
<stop offset="1" stop-color="#99F3F5" stop-opacity="0"/>
</linearGradient>
<linearGradient id="paint12_linear" x1="-20.6261" y1="462.858" x2="146.275" y2="338.084" gradientUnits="userSpaceOnUse">
<stop stop-color="#99F3F5"/>
<stop offset="1" stop-color="#99F3F5" stop-opacity="0"/>
</linearGradient>
<linearGradient id="paint13_linear" x1="-20.6261" y1="462.858" x2="146.275" y2="338.084" gradientUnits="userSpaceOnUse">
<stop stop-color="#99F3F5"/>
<stop offset="1" stop-color="#99F3F5" stop-opacity="0"/>
</linearGradient>
<linearGradient id="paint14_linear" x1="-20.6261" y1="462.858" x2="146.275" y2="338.084" gradientUnits="userSpaceOnUse">
<stop stop-color="#99F3F5"/>
<stop offset="1" stop-color="#99F3F5" stop-opacity="0"/>
</linearGradient>
<linearGradient id="paint15_linear" x1="-20.6261" y1="462.858" x2="146.275" y2="338.084" gradientUnits="userSpaceOnUse">
<stop stop-color="#99F3F5"/>
<stop offset="1" stop-color="#99F3F5" stop-opacity="0"/>
</linearGradient>
<linearGradient id="paint16_linear" x1="-20.6261" y1="462.858" x2="146.275" y2="338.084" gradientUnits="userSpaceOnUse">
<stop stop-color="#99F3F5"/>
<stop offset="1" stop-color="#99F3F5" stop-opacity="0"/>
</linearGradient>
<linearGradient id="paint17_linear" x1="-20.6261" y1="462.858" x2="146.275" y2="338.084" gradientUnits="userSpaceOnUse">
<stop stop-color="#99F3F5"/>
<stop offset="1" stop-color="#99F3F5" stop-opacity="0"/>
</linearGradient>
<linearGradient id="paint18_linear" x1="-20.6261" y1="462.858" x2="146.275" y2="338.084" gradientUnits="userSpaceOnUse">
<stop stop-color="#99F3F5"/>
<stop offset="1" stop-color="#99F3F5" stop-opacity="0"/>
</linearGradient>
<linearGradient id="paint19_linear" x1="-20.6261" y1="462.858" x2="146.275" y2="338.084" gradientUnits="userSpaceOnUse">
<stop stop-color="#99F3F5"/>
<stop offset="1" stop-color="#99F3F5" stop-opacity="0"/>
</linearGradient>
<linearGradient id="paint20_linear" x1="-20.6261" y1="462.858" x2="146.275" y2="338.084" gradientUnits="userSpaceOnUse">
<stop stop-color="#99F3F5"/>
<stop offset="1" stop-color="#99F3F5" stop-opacity="0"/>
</linearGradient>
<linearGradient id="paint21_linear" x1="-20.6261" y1="462.858" x2="146.275" y2="338.084" gradientUnits="userSpaceOnUse">
<stop stop-color="#99F3F5"/>
<stop offset="1" stop-color="#99F3F5" stop-opacity="0"/>
</linearGradient>
<linearGradient id="paint22_linear" x1="-20.6261" y1="462.858" x2="146.275" y2="338.084" gradientUnits="userSpaceOnUse">
<stop stop-color="#99F3F5"/>
<stop offset="1" stop-color="#99F3F5" stop-opacity="0"/>
</linearGradient>
<linearGradient id="paint23_linear" x1="-20.6261" y1="462.858" x2="146.275" y2="338.084" gradientUnits="userSpaceOnUse">
<stop stop-color="#99F3F5"/>
<stop offset="1" stop-color="#99F3F5" stop-opacity="0"/>
</linearGradient>
<linearGradient id="paint24_linear" x1="-20.6261" y1="462.858" x2="146.275" y2="338.084" gradientUnits="userSpaceOnUse">
<stop stop-color="#99F3F5"/>
<stop offset="1" stop-color="#99F3F5" stop-opacity="0"/>
</linearGradient>
<linearGradient id="paint25_linear" x1="-20.6261" y1="462.858" x2="146.275" y2="338.084" gradientUnits="userSpaceOnUse">
<stop stop-color="#99F3F5"/>
<stop offset="1" stop-color="#99F3F5" stop-opacity="0"/>
</linearGradient>
<linearGradient id="paint26_linear" x1="-20.6261" y1="462.858" x2="146.275" y2="338.084" gradientUnits="userSpaceOnUse">
<stop stop-color="#99F3F5"/>
<stop offset="1" stop-color="#99F3F5" stop-opacity="0"/>
</linearGradient>
<linearGradient id="paint27_linear" x1="-20.6261" y1="462.858" x2="146.275" y2="338.084" gradientUnits="userSpaceOnUse">
<stop stop-color="#99F3F5"/>
<stop offset="1" stop-color="#99F3F5" stop-opacity="0"/>
</linearGradient>
<linearGradient id="paint28_linear" x1="-20.6261" y1="462.858" x2="146.275" y2="338.084" gradientUnits="userSpaceOnUse">
<stop stop-color="#99F3F5"/>
<stop offset="1" stop-color="#99F3F5" stop-opacity="0"/>
</linearGradient>
<linearGradient id="paint29_linear" x1="-20.6261" y1="462.858" x2="146.275" y2="338.084" gradientUnits="userSpaceOnUse">
<stop stop-color="#99F3F5"/>
<stop offset="1" stop-color="#99F3F5" stop-opacity="0"/>
</linearGradient>
<linearGradient id="paint30_linear" x1="-20.6261" y1="462.858" x2="146.275" y2="338.084" gradientUnits="userSpaceOnUse">
<stop stop-color="#99F3F5"/>
<stop offset="1" stop-color="#99F3F5" stop-opacity="0"/>
</linearGradient>
<linearGradient id="paint31_linear" x1="-20.6261" y1="462.858" x2="146.275" y2="338.084" gradientUnits="userSpaceOnUse">
<stop stop-color="#99F3F5"/>
<stop offset="1" stop-color="#99F3F5" stop-opacity="0"/>
</linearGradient>
<linearGradient id="paint32_linear" x1="-20.6261" y1="462.858" x2="146.275" y2="338.084" gradientUnits="userSpaceOnUse">
<stop stop-color="#99F3F5"/>
<stop offset="1" stop-color="#99F3F5" stop-opacity="0"/>
</linearGradient>
<linearGradient id="paint33_linear" x1="-20.6261" y1="462.858" x2="146.275" y2="338.084" gradientUnits="userSpaceOnUse">
<stop stop-color="#99F3F5"/>
<stop offset="1" stop-color="#99F3F5" stop-opacity="0"/>
</linearGradient>
<linearGradient id="paint34_linear" x1="-20.6261" y1="462.858" x2="146.275" y2="338.084" gradientUnits="userSpaceOnUse">
<stop stop-color="#99F3F5"/>
<stop offset="1" stop-color="#99F3F5" stop-opacity="0"/>
</linearGradient>
<linearGradient id="paint35_linear" x1="-20.6261" y1="462.858" x2="146.275" y2="338.084" gradientUnits="userSpaceOnUse">
<stop stop-color="#99F3F5"/>
<stop offset="1" stop-color="#99F3F5" stop-opacity="0"/>
</linearGradient>
<linearGradient id="paint36_linear" x1="-20.6261" y1="462.858" x2="146.275" y2="338.084" gradientUnits="userSpaceOnUse">
<stop stop-color="#99F3F5"/>
<stop offset="1" stop-color="#99F3F5" stop-opacity="0"/>
</linearGradient>
<linearGradient id="paint37_linear" x1="-20.6261" y1="462.858" x2="146.275" y2="338.084" gradientUnits="userSpaceOnUse">
<stop stop-color="#99F3F5"/>
<stop offset="1" stop-color="#99F3F5" stop-opacity="0"/>
</linearGradient>
<linearGradient id="paint38_linear" x1="-20.6261" y1="462.858" x2="146.275" y2="338.084" gradientUnits="userSpaceOnUse">
<stop stop-color="#99F3F5"/>
<stop offset="1" stop-color="#99F3F5" stop-opacity="0"/>
</linearGradient>
<linearGradient id="paint39_linear" x1="-20.6261" y1="462.858" x2="146.275" y2="338.084" gradientUnits="userSpaceOnUse">
<stop stop-color="#99F3F5"/>
<stop offset="1" stop-color="#99F3F5" stop-opacity="0"/>
</linearGradient>
<linearGradient id="paint40_linear" x1="-20.6261" y1="462.858" x2="146.275" y2="338.084" gradientUnits="userSpaceOnUse">
<stop stop-color="#99F3F5"/>
<stop offset="1" stop-color="#99F3F5" stop-opacity="0"/>
</linearGradient>
<linearGradient id="paint41_linear" x1="-20.6261" y1="462.858" x2="146.275" y2="338.084" gradientUnits="userSpaceOnUse">
<stop stop-color="#99F3F5"/>
<stop offset="1" stop-color="#99F3F5" stop-opacity="0"/>
</linearGradient>
<linearGradient id="paint42_linear" x1="-20.6261" y1="462.858" x2="146.275" y2="338.084" gradientUnits="userSpaceOnUse">
<stop stop-color="#99F3F5"/>
<stop offset="1" stop-color="#99F3F5" stop-opacity="0"/>
</linearGradient>
<linearGradient id="paint43_linear" x1="-20.6261" y1="462.858" x2="146.275" y2="338.084" gradientUnits="userSpaceOnUse">
<stop stop-color="#99F3F5"/>
<stop offset="1" stop-color="#99F3F5" stop-opacity="0"/>
</linearGradient>
<linearGradient id="paint44_linear" x1="-20.6261" y1="462.858" x2="146.275" y2="338.084" gradientUnits="userSpaceOnUse">
<stop stop-color="#99F3F5"/>
<stop offset="1" stop-color="#99F3F5" stop-opacity="0"/>
</linearGradient>
<linearGradient id="paint45_linear" x1="-20.6261" y1="462.858" x2="146.275" y2="338.084" gradientUnits="userSpaceOnUse">
<stop stop-color="#99F3F5"/>
<stop offset="1" stop-color="#99F3F5" stop-opacity="0"/>
</linearGradient>
<linearGradient id="paint46_linear" x1="-20.6261" y1="462.858" x2="146.275" y2="338.084" gradientUnits="userSpaceOnUse">
<stop stop-color="#99F3F5"/>
<stop offset="1" stop-color="#99F3F5" stop-opacity="0"/>
</linearGradient>
<linearGradient id="paint47_linear" x1="-20.6261" y1="462.858" x2="146.275" y2="338.084" gradientUnits="userSpaceOnUse">
<stop stop-color="#99F3F5"/>
<stop offset="1" stop-color="#99F3F5" stop-opacity="0"/>
</linearGradient>
<linearGradient id="paint48_linear" x1="-20.6261" y1="462.858" x2="146.275" y2="338.084" gradientUnits="userSpaceOnUse">
<stop stop-color="#99F3F5"/>
<stop offset="1" stop-color="#99F3F5" stop-opacity="0"/>
</linearGradient>
<linearGradient id="paint49_linear" x1="-20.6261" y1="462.858" x2="146.275" y2="338.084" gradientUnits="userSpaceOnUse">
<stop stop-color="#99F3F5"/>
<stop offset="1" stop-color="#99F3F5" stop-opacity="0"/>
</linearGradient>
<linearGradient id="paint50_linear" x1="-20.6261" y1="462.858" x2="146.275" y2="338.084" gradientUnits="userSpaceOnUse">
<stop stop-color="#99F3F5"/>
<stop offset="1" stop-color="#99F3F5" stop-opacity="0"/>
</linearGradient>
<linearGradient id="paint51_linear" x1="-20.6261" y1="462.858" x2="146.275" y2="338.084" gradientUnits="userSpaceOnUse">
<stop stop-color="#99F3F5"/>
<stop offset="1" stop-color="#99F3F5" stop-opacity="0"/>
</linearGradient>
<linearGradient id="paint52_linear" x1="-20.6261" y1="462.858" x2="146.275" y2="338.084" gradientUnits="userSpaceOnUse">
<stop stop-color="#99F3F5"/>
<stop offset="1" stop-color="#99F3F5" stop-opacity="0"/>
</linearGradient>
<linearGradient id="paint53_linear" x1="-20.6261" y1="462.858" x2="146.275" y2="338.084" gradientUnits="userSpaceOnUse">
<stop stop-color="#99F3F5"/>
<stop offset="1" stop-color="#99F3F5" stop-opacity="0"/>
</linearGradient>
<linearGradient id="paint54_linear" x1="-20.6261" y1="462.858" x2="146.275" y2="338.084" gradientUnits="userSpaceOnUse">
<stop stop-color="#99F3F5"/>
<stop offset="1" stop-color="#99F3F5" stop-opacity="0"/>
</linearGradient>
<linearGradient id="paint55_linear" x1="-20.6261" y1="462.858" x2="146.275" y2="338.084" gradientUnits="userSpaceOnUse">
<stop stop-color="#99F3F5"/>
<stop offset="1" stop-color="#99F3F5" stop-opacity="0"/>
</linearGradient>
<linearGradient id="paint56_linear" x1="-20.6261" y1="462.858" x2="146.275" y2="338.084" gradientUnits="userSpaceOnUse">
<stop stop-color="#99F3F5"/>
<stop offset="1" stop-color="#99F3F5" stop-opacity="0"/>
</linearGradient>
<linearGradient id="paint57_linear" x1="-20.6261" y1="462.858" x2="146.275" y2="338.084" gradientUnits="userSpaceOnUse">
<stop stop-color="#99F3F5"/>
<stop offset="1" stop-color="#99F3F5" stop-opacity="0"/>
</linearGradient>
<linearGradient id="paint58_linear" x1="-20.6261" y1="462.858" x2="146.275" y2="338.084" gradientUnits="userSpaceOnUse">
<stop stop-color="#99F3F5"/>
<stop offset="1" stop-color="#99F3F5" stop-opacity="0"/>
</linearGradient>
<linearGradient id="paint59_linear" x1="-20.6261" y1="462.858" x2="146.275" y2="338.084" gradientUnits="userSpaceOnUse">
<stop stop-color="#99F3F5"/>
<stop offset="1" stop-color="#99F3F5" stop-opacity="0"/>
</linearGradient>
<linearGradient id="paint60_linear" x1="-20.6261" y1="462.858" x2="146.275" y2="338.084" gradientUnits="userSpaceOnUse">
<stop stop-color="#99F3F5"/>
<stop offset="1" stop-color="#99F3F5" stop-opacity="0"/>
</linearGradient>
<linearGradient id="paint61_linear" x1="-20.6261" y1="462.858" x2="146.275" y2="338.084" gradientUnits="userSpaceOnUse">
<stop stop-color="#99F3F5"/>
<stop offset="1" stop-color="#99F3F5" stop-opacity="0"/>
</linearGradient>
<linearGradient id="paint62_linear" x1="-20.6261" y1="462.858" x2="146.275" y2="338.084" gradientUnits="userSpaceOnUse">
<stop stop-color="#99F3F5"/>
<stop offset="1" stop-color="#99F3F5" stop-opacity="0"/>
</linearGradient>
<linearGradient id="paint63_linear" x1="-20.6261" y1="462.858" x2="146.275" y2="338.084" gradientUnits="userSpaceOnUse">
<stop stop-color="#99F3F5"/>
<stop offset="1" stop-color="#99F3F5" stop-opacity="0"/>
</linearGradient>
<linearGradient id="paint64_linear" x1="-20.6261" y1="462.858" x2="146.275" y2="338.084" gradientUnits="userSpaceOnUse">
<stop stop-color="#99F3F5"/>
<stop offset="1" stop-color="#99F3F5" stop-opacity="0"/>
</linearGradient>
<linearGradient id="paint65_linear" x1="-20.6261" y1="462.858" x2="146.275" y2="338.084" gradientUnits="userSpaceOnUse">
<stop stop-color="#99F3F5"/>
<stop offset="1" stop-color="#99F3F5" stop-opacity="0"/>
</linearGradient>
<linearGradient id="paint66_linear" x1="-20.6261" y1="462.858" x2="146.275" y2="338.084" gradientUnits="userSpaceOnUse">
<stop stop-color="#99F3F5"/>
<stop offset="1" stop-color="#99F3F5" stop-opacity="0"/>
</linearGradient>
<linearGradient id="paint67_linear" x1="-20.6261" y1="462.858" x2="146.275" y2="338.084" gradientUnits="userSpaceOnUse">
<stop stop-color="#99F3F5"/>
<stop offset="1" stop-color="#99F3F5" stop-opacity="0"/>
</linearGradient>
<linearGradient id="paint68_linear" x1="-20.6261" y1="462.858" x2="146.275" y2="338.084" gradientUnits="userSpaceOnUse">
<stop stop-color="#99F3F5"/>
<stop offset="1" stop-color="#99F3F5" stop-opacity="0"/>
</linearGradient>
<linearGradient id="paint69_linear" x1="-20.6261" y1="462.858" x2="146.275" y2="338.084" gradientUnits="userSpaceOnUse">
<stop stop-color="#99F3F5"/>
<stop offset="1" stop-color="#99F3F5" stop-opacity="0"/>
</linearGradient>
<linearGradient id="paint70_linear" x1="-20.6261" y1="462.858" x2="146.275" y2="338.084" gradientUnits="userSpaceOnUse">
<stop stop-color="#99F3F5"/>
<stop offset="1" stop-color="#99F3F5" stop-opacity="0"/>
</linearGradient>
<linearGradient id="paint71_linear" x1="-20.6261" y1="462.858" x2="146.275" y2="338.084" gradientUnits="userSpaceOnUse">
<stop stop-color="#99F3F5"/>
<stop offset="1" stop-color="#99F3F5" stop-opacity="0"/>
</linearGradient>
<linearGradient id="paint72_linear" x1="-20.6261" y1="462.858" x2="146.275" y2="338.084" gradientUnits="userSpaceOnUse">
<stop stop-color="#99F3F5"/>
<stop offset="1" stop-color="#99F3F5" stop-opacity="0"/>
</linearGradient>
<linearGradient id="paint73_linear" x1="-20.6261" y1="462.858" x2="146.275" y2="338.084" gradientUnits="userSpaceOnUse">
<stop stop-color="#99F3F5"/>
<stop offset="1" stop-color="#99F3F5" stop-opacity="0"/>
</linearGradient>
<linearGradient id="paint74_linear" x1="-20.6261" y1="462.858" x2="146.275" y2="338.084" gradientUnits="userSpaceOnUse">
<stop stop-color="#99F3F5"/>
<stop offset="1" stop-color="#99F3F5" stop-opacity="0"/>
</linearGradient>
<linearGradient id="paint75_linear" x1="-20.6261" y1="462.858" x2="146.275" y2="338.084" gradientUnits="userSpaceOnUse">
<stop stop-color="#99F3F5"/>
<stop offset="1" stop-color="#99F3F5" stop-opacity="0"/>
</linearGradient>
<linearGradient id="paint76_linear" x1="-20.6261" y1="462.858" x2="146.275" y2="338.084" gradientUnits="userSpaceOnUse">
<stop stop-color="#99F3F5"/>
<stop offset="1" stop-color="#99F3F5" stop-opacity="0"/>
</linearGradient>
<linearGradient id="paint77_linear" x1="-20.6261" y1="462.858" x2="146.275" y2="338.084" gradientUnits="userSpaceOnUse">
<stop stop-color="#99F3F5"/>
<stop offset="1" stop-color="#99F3F5" stop-opacity="0"/>
</linearGradient>
<linearGradient id="paint78_linear" x1="-20.6261" y1="462.858" x2="146.275" y2="338.084" gradientUnits="userSpaceOnUse">
<stop stop-color="#99F3F5"/>
<stop offset="1" stop-color="#99F3F5" stop-opacity="0"/>
</linearGradient>
<linearGradient id="paint79_linear" x1="-20.6261" y1="462.858" x2="146.275" y2="338.084" gradientUnits="userSpaceOnUse">
<stop stop-color="#99F3F5"/>
<stop offset="1" stop-color="#99F3F5" stop-opacity="0"/>
</linearGradient>
<linearGradient id="paint80_linear" x1="-20.6261" y1="462.858" x2="146.275" y2="338.084" gradientUnits="userSpaceOnUse">
<stop stop-color="#99F3F5"/>
<stop offset="1" stop-color="#99F3F5" stop-opacity="0"/>
</linearGradient>
<linearGradient id="paint81_linear" x1="-20.6261" y1="462.858" x2="146.275" y2="338.084" gradientUnits="userSpaceOnUse">
<stop stop-color="#99F3F5"/>
<stop offset="1" stop-color="#99F3F5" stop-opacity="0"/>
</linearGradient>
<linearGradient id="paint82_linear" x1="-20.6261" y1="462.858" x2="146.275" y2="338.084" gradientUnits="userSpaceOnUse">
<stop stop-color="#99F3F5"/>
<stop offset="1" stop-color="#99F3F5" stop-opacity="0"/>
</linearGradient>
<linearGradient id="paint83_linear" x1="-20.6261" y1="462.858" x2="146.275" y2="338.084" gradientUnits="userSpaceOnUse">
<stop stop-color="#99F3F5"/>
<stop offset="1" stop-color="#99F3F5" stop-opacity="0"/>
</linearGradient>
<linearGradient id="paint84_linear" x1="-20.6261" y1="462.858" x2="146.275" y2="338.084" gradientUnits="userSpaceOnUse">
<stop stop-color="#99F3F5"/>
<stop offset="1" stop-color="#99F3F5" stop-opacity="0"/>
</linearGradient>
<linearGradient id="paint85_linear" x1="-20.6261" y1="462.858" x2="146.275" y2="338.084" gradientUnits="userSpaceOnUse">
<stop stop-color="#99F3F5"/>
<stop offset="1" stop-color="#99F3F5" stop-opacity="0"/>
</linearGradient>
<linearGradient id="paint86_linear" x1="-20.6261" y1="462.858" x2="146.275" y2="338.084" gradientUnits="userSpaceOnUse">
<stop stop-color="#99F3F5"/>
<stop offset="1" stop-color="#99F3F5" stop-opacity="0"/>
</linearGradient>
<linearGradient id="paint87_linear" x1="-20.6261" y1="462.858" x2="146.275" y2="338.084" gradientUnits="userSpaceOnUse">
<stop stop-color="#99F3F5"/>
<stop offset="1" stop-color="#99F3F5" stop-opacity="0"/>
</linearGradient>
<linearGradient id="paint88_linear" x1="-20.6261" y1="462.858" x2="146.275" y2="338.084" gradientUnits="userSpaceOnUse">
<stop stop-color="#99F3F5"/>
<stop offset="1" stop-color="#99F3F5" stop-opacity="0"/>
</linearGradient>
<linearGradient id="paint89_linear" x1="-20.6261" y1="462.858" x2="146.275" y2="338.084" gradientUnits="userSpaceOnUse">
<stop stop-color="#99F3F5"/>
<stop offset="1" stop-color="#99F3F5" stop-opacity="0"/>
</linearGradient>
<linearGradient id="paint90_linear" x1="-20.6261" y1="462.858" x2="146.275" y2="338.084" gradientUnits="userSpaceOnUse">
<stop stop-color="#99F3F5"/>
<stop offset="1" stop-color="#99F3F5" stop-opacity="0"/>
</linearGradient>
<linearGradient id="paint91_linear" x1="521.287" y1="117.923" x2="428.426" y2="233.472" gradientUnits="userSpaceOnUse">
<stop stop-color="#99F3F5"/>
<stop offset="1" stop-color="#99F3F5" stop-opacity="0"/>
</linearGradient>
<linearGradient id="paint92_linear" x1="521.287" y1="117.923" x2="428.426" y2="233.472" gradientUnits="userSpaceOnUse">
<stop stop-color="#99F3F5"/>
<stop offset="1" stop-color="#99F3F5" stop-opacity="0"/>
</linearGradient>
<linearGradient id="paint93_linear" x1="521.287" y1="117.923" x2="428.426" y2="233.472" gradientUnits="userSpaceOnUse">
<stop stop-color="#99F3F5"/>
<stop offset="1" stop-color="#99F3F5" stop-opacity="0"/>
</linearGradient>
<linearGradient id="paint94_linear" x1="521.287" y1="117.923" x2="428.426" y2="233.472" gradientUnits="userSpaceOnUse">
<stop stop-color="#99F3F5"/>
<stop offset="1" stop-color="#99F3F5" stop-opacity="0"/>
</linearGradient>
<linearGradient id="paint95_linear" x1="521.287" y1="117.923" x2="428.426" y2="233.472" gradientUnits="userSpaceOnUse">
<stop stop-color="#99F3F5"/>
<stop offset="1" stop-color="#99F3F5" stop-opacity="0"/>
</linearGradient>
<linearGradient id="paint96_linear" x1="521.287" y1="117.923" x2="428.426" y2="233.472" gradientUnits="userSpaceOnUse">
<stop stop-color="#99F3F5"/>
<stop offset="1" stop-color="#99F3F5" stop-opacity="0"/>
</linearGradient>
<linearGradient id="paint97_linear" x1="521.287" y1="117.923" x2="428.426" y2="233.472" gradientUnits="userSpaceOnUse">
<stop stop-color="#99F3F5"/>
<stop offset="1" stop-color="#99F3F5" stop-opacity="0"/>
</linearGradient>
<linearGradient id="paint98_linear" x1="521.287" y1="117.923" x2="428.426" y2="233.472" gradientUnits="userSpaceOnUse">
<stop stop-color="#99F3F5"/>
<stop offset="1" stop-color="#99F3F5" stop-opacity="0"/>
</linearGradient>
<linearGradient id="paint99_linear" x1="521.287" y1="117.923" x2="428.426" y2="233.472" gradientUnits="userSpaceOnUse">
<stop stop-color="#99F3F5"/>
<stop offset="1" stop-color="#99F3F5" stop-opacity="0"/>
</linearGradient>
<linearGradient id="paint100_linear" x1="521.287" y1="117.923" x2="428.426" y2="233.472" gradientUnits="userSpaceOnUse">
<stop stop-color="#99F3F5"/>
<stop offset="1" stop-color="#99F3F5" stop-opacity="0"/>
</linearGradient>
<linearGradient id="paint101_linear" x1="521.287" y1="117.923" x2="428.426" y2="233.472" gradientUnits="userSpaceOnUse">
<stop stop-color="#99F3F5"/>
<stop offset="1" stop-color="#99F3F5" stop-opacity="0"/>
</linearGradient>
<linearGradient id="paint102_linear" x1="521.287" y1="117.923" x2="428.426" y2="233.472" gradientUnits="userSpaceOnUse">
<stop stop-color="#99F3F5"/>
<stop offset="1" stop-color="#99F3F5" stop-opacity="0"/>
</linearGradient>
<linearGradient id="paint103_linear" x1="521.287" y1="117.923" x2="428.426" y2="233.472" gradientUnits="userSpaceOnUse">
<stop stop-color="#99F3F5"/>
<stop offset="1" stop-color="#99F3F5" stop-opacity="0"/>
</linearGradient>
<linearGradient id="paint104_linear" x1="521.287" y1="117.923" x2="428.426" y2="233.472" gradientUnits="userSpaceOnUse">
<stop stop-color="#99F3F5"/>
<stop offset="1" stop-color="#99F3F5" stop-opacity="0"/>
</linearGradient>
<linearGradient id="paint105_linear" x1="521.287" y1="117.923" x2="428.426" y2="233.472" gradientUnits="userSpaceOnUse">
<stop stop-color="#99F3F5"/>
<stop offset="1" stop-color="#99F3F5" stop-opacity="0"/>
</linearGradient>
<linearGradient id="paint106_linear" x1="521.287" y1="117.923" x2="428.426" y2="233.472" gradientUnits="userSpaceOnUse">
<stop stop-color="#99F3F5"/>
<stop offset="1" stop-color="#99F3F5" stop-opacity="0"/>
</linearGradient>
<linearGradient id="paint107_linear" x1="521.287" y1="117.923" x2="428.426" y2="233.472" gradientUnits="userSpaceOnUse">
<stop stop-color="#99F3F5"/>
<stop offset="1" stop-color="#99F3F5" stop-opacity="0"/>
</linearGradient>
<linearGradient id="paint108_linear" x1="521.287" y1="117.923" x2="428.426" y2="233.472" gradientUnits="userSpaceOnUse">
<stop stop-color="#99F3F5"/>
<stop offset="1" stop-color="#99F3F5" stop-opacity="0"/>
</linearGradient>
<linearGradient id="paint109_linear" x1="521.287" y1="117.923" x2="428.426" y2="233.472" gradientUnits="userSpaceOnUse">
<stop stop-color="#99F3F5"/>
<stop offset="1" stop-color="#99F3F5" stop-opacity="0"/>
</linearGradient>
<linearGradient id="paint110_linear" x1="521.287" y1="117.923" x2="428.426" y2="233.472" gradientUnits="userSpaceOnUse">
<stop stop-color="#99F3F5"/>
<stop offset="1" stop-color="#99F3F5" stop-opacity="0"/>
</linearGradient>
<linearGradient id="paint111_linear" x1="521.287" y1="117.923" x2="428.426" y2="233.472" gradientUnits="userSpaceOnUse">
<stop stop-color="#99F3F5"/>
<stop offset="1" stop-color="#99F3F5" stop-opacity="0"/>
</linearGradient>
<linearGradient id="paint112_linear" x1="521.287" y1="117.923" x2="428.426" y2="233.472" gradientUnits="userSpaceOnUse">
<stop stop-color="#99F3F5"/>
<stop offset="1" stop-color="#99F3F5" stop-opacity="0"/>
</linearGradient>
<linearGradient id="paint113_linear" x1="521.287" y1="117.923" x2="428.426" y2="233.472" gradientUnits="userSpaceOnUse">
<stop stop-color="#99F3F5"/>
<stop offset="1" stop-color="#99F3F5" stop-opacity="0"/>
</linearGradient>
<linearGradient id="paint114_linear" x1="521.287" y1="117.923" x2="428.426" y2="233.472" gradientUnits="userSpaceOnUse">
<stop stop-color="#99F3F5"/>
<stop offset="1" stop-color="#99F3F5" stop-opacity="0"/>
</linearGradient>
<linearGradient id="paint115_linear" x1="521.287" y1="117.923" x2="428.426" y2="233.472" gradientUnits="userSpaceOnUse">
<stop stop-color="#99F3F5"/>
<stop offset="1" stop-color="#99F3F5" stop-opacity="0"/>
</linearGradient>
<linearGradient id="paint116_linear" x1="521.287" y1="117.923" x2="428.426" y2="233.472" gradientUnits="userSpaceOnUse">
<stop stop-color="#99F3F5"/>
<stop offset="1" stop-color="#99F3F5" stop-opacity="0"/>
</linearGradient>
<linearGradient id="paint117_linear" x1="521.287" y1="117.923" x2="428.426" y2="233.472" gradientUnits="userSpaceOnUse">
<stop stop-color="#99F3F5"/>
<stop offset="1" stop-color="#99F3F5" stop-opacity="0"/>
</linearGradient>
<linearGradient id="paint118_linear" x1="521.287" y1="117.923" x2="428.426" y2="233.472" gradientUnits="userSpaceOnUse">
<stop stop-color="#99F3F5"/>
<stop offset="1" stop-color="#99F3F5" stop-opacity="0"/>
</linearGradient>
<linearGradient id="paint119_linear" x1="521.287" y1="117.923" x2="428.426" y2="233.472" gradientUnits="userSpaceOnUse">
<stop stop-color="#99F3F5"/>
<stop offset="1" stop-color="#99F3F5" stop-opacity="0"/>
</linearGradient>
<linearGradient id="paint120_linear" x1="521.287" y1="117.923" x2="428.426" y2="233.472" gradientUnits="userSpaceOnUse">
<stop stop-color="#99F3F5"/>
<stop offset="1" stop-color="#99F3F5" stop-opacity="0"/>
</linearGradient>
<linearGradient id="paint121_linear" x1="521.287" y1="117.923" x2="428.426" y2="233.472" gradientUnits="userSpaceOnUse">
<stop stop-color="#99F3F5"/>
<stop offset="1" stop-color="#99F3F5" stop-opacity="0"/>
</linearGradient>
<linearGradient id="paint122_linear" x1="521.287" y1="117.923" x2="428.426" y2="233.472" gradientUnits="userSpaceOnUse">
<stop stop-color="#99F3F5"/>
<stop offset="1" stop-color="#99F3F5" stop-opacity="0"/>
</linearGradient>
<linearGradient id="paint123_linear" x1="521.287" y1="117.923" x2="428.426" y2="233.472" gradientUnits="userSpaceOnUse">
<stop stop-color="#99F3F5"/>
<stop offset="1" stop-color="#99F3F5" stop-opacity="0"/>
</linearGradient>
<linearGradient id="paint124_linear" x1="521.287" y1="117.923" x2="428.426" y2="233.472" gradientUnits="userSpaceOnUse">
<stop stop-color="#99F3F5"/>
<stop offset="1" stop-color="#99F3F5" stop-opacity="0"/>
</linearGradient>
<linearGradient id="paint125_linear" x1="521.287" y1="117.923" x2="428.426" y2="233.472" gradientUnits="userSpaceOnUse">
<stop stop-color="#99F3F5"/>
<stop offset="1" stop-color="#99F3F5" stop-opacity="0"/>
</linearGradient>
<linearGradient id="paint126_linear" x1="521.287" y1="117.923" x2="428.426" y2="233.472" gradientUnits="userSpaceOnUse">
<stop stop-color="#99F3F5"/>
<stop offset="1" stop-color="#99F3F5" stop-opacity="0"/>
</linearGradient>
<linearGradient id="paint127_linear" x1="521.287" y1="117.923" x2="428.426" y2="233.472" gradientUnits="userSpaceOnUse">
<stop stop-color="#99F3F5"/>
<stop offset="1" stop-color="#99F3F5" stop-opacity="0"/>
</linearGradient>
<linearGradient id="paint128_linear" x1="521.287" y1="117.923" x2="428.426" y2="233.472" gradientUnits="userSpaceOnUse">
<stop stop-color="#99F3F5"/>
<stop offset="1" stop-color="#99F3F5" stop-opacity="0"/>
</linearGradient>
<linearGradient id="paint129_linear" x1="521.287" y1="117.923" x2="428.426" y2="233.472" gradientUnits="userSpaceOnUse">
<stop stop-color="#99F3F5"/>
<stop offset="1" stop-color="#99F3F5" stop-opacity="0"/>
</linearGradient>
<linearGradient id="paint130_linear" x1="521.287" y1="117.923" x2="428.426" y2="233.472" gradientUnits="userSpaceOnUse">
<stop stop-color="#99F3F5"/>
<stop offset="1" stop-color="#99F3F5" stop-opacity="0"/>
</linearGradient>
<linearGradient id="paint131_linear" x1="521.287" y1="117.923" x2="428.426" y2="233.472" gradientUnits="userSpaceOnUse">
<stop stop-color="#99F3F5"/>
<stop offset="1" stop-color="#99F3F5" stop-opacity="0"/>
</linearGradient>
<linearGradient id="paint132_linear" x1="521.287" y1="117.923" x2="428.426" y2="233.472" gradientUnits="userSpaceOnUse">
<stop stop-color="#99F3F5"/>
<stop offset="1" stop-color="#99F3F5" stop-opacity="0"/>
</linearGradient>
<linearGradient id="paint133_linear" x1="521.287" y1="117.923" x2="428.426" y2="233.472" gradientUnits="userSpaceOnUse">
<stop stop-color="#99F3F5"/>
<stop offset="1" stop-color="#99F3F5" stop-opacity="0"/>
</linearGradient>
<linearGradient id="paint134_linear" x1="521.287" y1="117.923" x2="428.426" y2="233.472" gradientUnits="userSpaceOnUse">
<stop stop-color="#99F3F5"/>
<stop offset="1" stop-color="#99F3F5" stop-opacity="0"/>
</linearGradient>
<linearGradient id="paint135_linear" x1="521.287" y1="117.923" x2="428.426" y2="233.472" gradientUnits="userSpaceOnUse">
<stop stop-color="#99F3F5"/>
<stop offset="1" stop-color="#99F3F5" stop-opacity="0"/>
</linearGradient>
<linearGradient id="paint136_linear" x1="521.287" y1="117.923" x2="428.426" y2="233.472" gradientUnits="userSpaceOnUse">
<stop stop-color="#99F3F5"/>
<stop offset="1" stop-color="#99F3F5" stop-opacity="0"/>
</linearGradient>
<linearGradient id="paint137_linear" x1="521.287" y1="117.923" x2="428.426" y2="233.472" gradientUnits="userSpaceOnUse">
<stop stop-color="#99F3F5"/>
<stop offset="1" stop-color="#99F3F5" stop-opacity="0"/>
</linearGradient>
<linearGradient id="paint138_linear" x1="521.287" y1="117.923" x2="428.426" y2="233.472" gradientUnits="userSpaceOnUse">
<stop stop-color="#99F3F5"/>
<stop offset="1" stop-color="#99F3F5" stop-opacity="0"/>
</linearGradient>
<linearGradient id="paint139_linear" x1="521.287" y1="117.923" x2="428.426" y2="233.472" gradientUnits="userSpaceOnUse">
<stop stop-color="#99F3F5"/>
<stop offset="1" stop-color="#99F3F5" stop-opacity="0"/>
</linearGradient>
<linearGradient id="paint140_linear" x1="521.287" y1="117.923" x2="428.426" y2="233.472" gradientUnits="userSpaceOnUse">
<stop stop-color="#99F3F5"/>
<stop offset="1" stop-color="#99F3F5" stop-opacity="0"/>
</linearGradient>
<linearGradient id="paint141_linear" x1="521.287" y1="117.923" x2="428.426" y2="233.472" gradientUnits="userSpaceOnUse">
<stop stop-color="#99F3F5"/>
<stop offset="1" stop-color="#99F3F5" stop-opacity="0"/>
</linearGradient>
<linearGradient id="paint142_linear" x1="521.287" y1="117.923" x2="428.426" y2="233.472" gradientUnits="userSpaceOnUse">
<stop stop-color="#99F3F5"/>
<stop offset="1" stop-color="#99F3F5" stop-opacity="0"/>
</linearGradient>
<linearGradient id="paint143_linear" x1="521.287" y1="117.923" x2="428.426" y2="233.472" gradientUnits="userSpaceOnUse">
<stop stop-color="#99F3F5"/>
<stop offset="1" stop-color="#99F3F5" stop-opacity="0"/>
</linearGradient>
<linearGradient id="paint144_linear" x1="521.287" y1="117.923" x2="428.426" y2="233.472" gradientUnits="userSpaceOnUse">
<stop stop-color="#99F3F5"/>
<stop offset="1" stop-color="#99F3F5" stop-opacity="0"/>
</linearGradient>
<linearGradient id="paint145_linear" x1="521.287" y1="117.923" x2="428.426" y2="233.472" gradientUnits="userSpaceOnUse">
<stop stop-color="#99F3F5"/>
<stop offset="1" stop-color="#99F3F5" stop-opacity="0"/>
</linearGradient>
<linearGradient id="paint146_linear" x1="521.287" y1="117.923" x2="428.426" y2="233.472" gradientUnits="userSpaceOnUse">
<stop stop-color="#99F3F5"/>
<stop offset="1" stop-color="#99F3F5" stop-opacity="0"/>
</linearGradient>
<linearGradient id="paint147_linear" x1="521.287" y1="117.923" x2="428.426" y2="233.472" gradientUnits="userSpaceOnUse">
<stop stop-color="#99F3F5"/>
<stop offset="1" stop-color="#99F3F5" stop-opacity="0"/>
</linearGradient>
<linearGradient id="paint148_linear" x1="521.287" y1="117.923" x2="428.426" y2="233.472" gradientUnits="userSpaceOnUse">
<stop stop-color="#99F3F5"/>
<stop offset="1" stop-color="#99F3F5" stop-opacity="0"/>
</linearGradient>
<linearGradient id="paint149_linear" x1="521.287" y1="117.923" x2="428.426" y2="233.472" gradientUnits="userSpaceOnUse">
<stop stop-color="#99F3F5"/>
<stop offset="1" stop-color="#99F3F5" stop-opacity="0"/>
</linearGradient>
<linearGradient id="paint150_linear" x1="521.287" y1="117.923" x2="428.426" y2="233.472" gradientUnits="userSpaceOnUse">
<stop stop-color="#99F3F5"/>
<stop offset="1" stop-color="#99F3F5" stop-opacity="0"/>
</linearGradient>
<linearGradient id="paint151_linear" x1="521.287" y1="117.923" x2="428.426" y2="233.472" gradientUnits="userSpaceOnUse">
<stop stop-color="#99F3F5"/>
<stop offset="1" stop-color="#99F3F5" stop-opacity="0"/>
</linearGradient>
<linearGradient id="paint152_linear" x1="521.287" y1="117.923" x2="428.426" y2="233.472" gradientUnits="userSpaceOnUse">
<stop stop-color="#99F3F5"/>
<stop offset="1" stop-color="#99F3F5" stop-opacity="0"/>
</linearGradient>
<linearGradient id="paint153_linear" x1="521.287" y1="117.923" x2="428.426" y2="233.472" gradientUnits="userSpaceOnUse">
<stop stop-color="#99F3F5"/>
<stop offset="1" stop-color="#99F3F5" stop-opacity="0"/>
</linearGradient>
<linearGradient id="paint154_linear" x1="521.287" y1="117.923" x2="428.426" y2="233.472" gradientUnits="userSpaceOnUse">
<stop stop-color="#99F3F5"/>
<stop offset="1" stop-color="#99F3F5" stop-opacity="0"/>
</linearGradient>
<linearGradient id="paint155_linear" x1="521.287" y1="117.923" x2="428.426" y2="233.472" gradientUnits="userSpaceOnUse">
<stop stop-color="#99F3F5"/>
<stop offset="1" stop-color="#99F3F5" stop-opacity="0"/>
</linearGradient>
<linearGradient id="paint156_linear" x1="521.287" y1="117.923" x2="428.426" y2="233.472" gradientUnits="userSpaceOnUse">
<stop stop-color="#99F3F5"/>
<stop offset="1" stop-color="#99F3F5" stop-opacity="0"/>
</linearGradient>
<linearGradient id="paint157_linear" x1="521.287" y1="117.923" x2="428.426" y2="233.472" gradientUnits="userSpaceOnUse">
<stop stop-color="#99F3F5"/>
<stop offset="1" stop-color="#99F3F5" stop-opacity="0"/>
</linearGradient>
<linearGradient id="paint158_linear" x1="521.287" y1="117.923" x2="428.426" y2="233.472" gradientUnits="userSpaceOnUse">
<stop stop-color="#99F3F5"/>
<stop offset="1" stop-color="#99F3F5" stop-opacity="0"/>
</linearGradient>
<linearGradient id="paint159_linear" x1="521.287" y1="117.923" x2="428.426" y2="233.472" gradientUnits="userSpaceOnUse">
<stop stop-color="#99F3F5"/>
<stop offset="1" stop-color="#99F3F5" stop-opacity="0"/>
</linearGradient>
<linearGradient id="paint160_linear" x1="521.287" y1="117.923" x2="428.426" y2="233.472" gradientUnits="userSpaceOnUse">
<stop stop-color="#99F3F5"/>
<stop offset="1" stop-color="#99F3F5" stop-opacity="0"/>
</linearGradient>
<linearGradient id="paint161_linear" x1="521.287" y1="117.923" x2="428.426" y2="233.472" gradientUnits="userSpaceOnUse">
<stop stop-color="#99F3F5"/>
<stop offset="1" stop-color="#99F3F5" stop-opacity="0"/>
</linearGradient>
<linearGradient id="paint162_linear" x1="521.287" y1="117.923" x2="428.426" y2="233.472" gradientUnits="userSpaceOnUse">
<stop stop-color="#99F3F5"/>
<stop offset="1" stop-color="#99F3F5" stop-opacity="0"/>
</linearGradient>
<linearGradient id="paint163_linear" x1="521.287" y1="117.923" x2="428.426" y2="233.472" gradientUnits="userSpaceOnUse">
<stop stop-color="#99F3F5"/>
<stop offset="1" stop-color="#99F3F5" stop-opacity="0"/>
</linearGradient>
<linearGradient id="paint164_linear" x1="521.287" y1="117.923" x2="428.426" y2="233.472" gradientUnits="userSpaceOnUse">
<stop stop-color="#99F3F5"/>
<stop offset="1" stop-color="#99F3F5" stop-opacity="0"/>
</linearGradient>
<linearGradient id="paint165_linear" x1="521.287" y1="117.923" x2="428.426" y2="233.472" gradientUnits="userSpaceOnUse">
<stop stop-color="#99F3F5"/>
<stop offset="1" stop-color="#99F3F5" stop-opacity="0"/>
</linearGradient>
<linearGradient id="paint166_linear" x1="521.287" y1="117.923" x2="428.426" y2="233.472" gradientUnits="userSpaceOnUse">
<stop stop-color="#99F3F5"/>
<stop offset="1" stop-color="#99F3F5" stop-opacity="0"/>
</linearGradient>
<linearGradient id="paint167_linear" x1="521.287" y1="117.923" x2="428.426" y2="233.472" gradientUnits="userSpaceOnUse">
<stop stop-color="#99F3F5"/>
<stop offset="1" stop-color="#99F3F5" stop-opacity="0"/>
</linearGradient>
<linearGradient id="paint168_linear" x1="521.287" y1="117.923" x2="428.426" y2="233.472" gradientUnits="userSpaceOnUse">
<stop stop-color="#99F3F5"/>
<stop offset="1" stop-color="#99F3F5" stop-opacity="0"/>
</linearGradient>
<linearGradient id="paint169_linear" x1="521.287" y1="117.923" x2="428.426" y2="233.472" gradientUnits="userSpaceOnUse">
<stop stop-color="#99F3F5"/>
<stop offset="1" stop-color="#99F3F5" stop-opacity="0"/>
</linearGradient>
<linearGradient id="paint170_linear" x1="521.287" y1="117.923" x2="428.426" y2="233.472" gradientUnits="userSpaceOnUse">
<stop stop-color="#99F3F5"/>
<stop offset="1" stop-color="#99F3F5" stop-opacity="0"/>
</linearGradient>
<linearGradient id="paint171_linear" x1="521.287" y1="117.923" x2="428.426" y2="233.472" gradientUnits="userSpaceOnUse">
<stop stop-color="#99F3F5"/>
<stop offset="1" stop-color="#99F3F5" stop-opacity="0"/>
</linearGradient>
<linearGradient id="paint172_linear" x1="521.287" y1="117.923" x2="428.426" y2="233.472" gradientUnits="userSpaceOnUse">
<stop stop-color="#99F3F5"/>
<stop offset="1" stop-color="#99F3F5" stop-opacity="0"/>
</linearGradient>
<linearGradient id="paint173_linear" x1="521.287" y1="117.923" x2="428.426" y2="233.472" gradientUnits="userSpaceOnUse">
<stop stop-color="#99F3F5"/>
<stop offset="1" stop-color="#99F3F5" stop-opacity="0"/>
</linearGradient>
<linearGradient id="paint174_linear" x1="521.287" y1="117.923" x2="428.426" y2="233.472" gradientUnits="userSpaceOnUse">
<stop stop-color="#99F3F5"/>
<stop offset="1" stop-color="#99F3F5" stop-opacity="0"/>
</linearGradient>
<linearGradient id="paint175_linear" x1="521.287" y1="117.923" x2="428.426" y2="233.472" gradientUnits="userSpaceOnUse">
<stop stop-color="#99F3F5"/>
<stop offset="1" stop-color="#99F3F5" stop-opacity="0"/>
</linearGradient>
<linearGradient id="paint176_linear" x1="521.287" y1="117.923" x2="428.426" y2="233.472" gradientUnits="userSpaceOnUse">
<stop stop-color="#99F3F5"/>
<stop offset="1" stop-color="#99F3F5" stop-opacity="0"/>
</linearGradient>
<linearGradient id="paint177_linear" x1="521.287" y1="117.923" x2="428.426" y2="233.472" gradientUnits="userSpaceOnUse">
<stop stop-color="#99F3F5"/>
<stop offset="1" stop-color="#99F3F5" stop-opacity="0"/>
</linearGradient>
<linearGradient id="paint178_linear" x1="521.287" y1="117.923" x2="428.426" y2="233.472" gradientUnits="userSpaceOnUse">
<stop stop-color="#99F3F5"/>
<stop offset="1" stop-color="#99F3F5" stop-opacity="0"/>
</linearGradient>
<linearGradient id="paint179_linear" x1="521.287" y1="117.923" x2="428.426" y2="233.472" gradientUnits="userSpaceOnUse">
<stop stop-color="#99F3F5"/>
<stop offset="1" stop-color="#99F3F5" stop-opacity="0"/>
</linearGradient>
<linearGradient id="paint180_linear" x1="521.287" y1="117.923" x2="428.426" y2="233.472" gradientUnits="userSpaceOnUse">
<stop stop-color="#99F3F5"/>
<stop offset="1" stop-color="#99F3F5" stop-opacity="0"/>
</linearGradient>
</defs>
</svg>
